<?xml version="1.0" encoding="UTF-8"?>
<svg id="Calque_2" data-name="Calque 2" xmlns="http://www.w3.org/2000/svg" viewBox="0 0 1294.68 1129.94">
  <defs>
    <style>
      .cls-1 {
        fill: #fff;
      }
    </style>
  </defs>
  <g>
    <path d="M611.19,562l-.45.09c-.03-.07-.07-.13-.11-.2l.56.11Z"/>
    <path d="M638.33,664.91c5.53-.88,11.07-1.66,16.62-2.34-5.55.68-11.08,1.46-16.62,2.34Z"/>
    <path d="M889.29,685.55l-87.12-17.14-37.88-57.46c-5.23-7.94-10.36-16.02-15.34-24.18l19.41,3.82,23.41,4.61-13.13-19.93-34.04-51.64c-16.33-24.75-31.59-50.9-45.5-77.94,5.31.88,10.63,1.84,15.93,2.88l11.13,2.2,23.44,4.64-13.14-19.95-7.13-10.81c-19.02-28.86-36.38-59.17-51.97-90.77,11.3-25.93,21.27-52.75,29.83-80.32l3.37-10.84,3.36,10.84c7.31,23.55,15.66,46.57,24.98,68.94,1.69,4.07,3.42,8.12,5.18,12.14,5.28,12.08,10.85,23.96,16.7,35.63,4.87,9.72,9.94,19.3,15.21,28.72,1.05,1.89,2.11,3.76,3.18,5.64,2.13,3.74,4.3,7.46,6.5,11.15,2.19,3.69,4.42,7.36,6.68,11,3.38,5.46,6.84,10.86,10.36,16.2l5.94,9.02-9.3-1.84c-9.82-1.93-19.67-3.54-29.54-4.81,13.63,28,28.87,54.81,45.63,80.23l28.41,43.1-34.48-6.79c7.16,12.48,14.67,24.67,22.51,36.56l57.41,87.1Z"/>
    <path d="M744.08,334.64c-1.76-4.02-3.49-8.07-5.18-12.14,1.7,4.07,3.42,8.12,5.18,12.14Z"/>
    <path d="M775.99,398.99c-5.27-9.42-10.34-19-15.21-28.72,4.88,9.72,9.95,19.3,15.21,28.72Z"/>
    <path d="M785.67,415.78c-2.2-3.69-4.37-7.41-6.5-11.15,2.14,3.74,4.3,7.46,6.5,11.15Z"/>
    <path d="M792.35,426.78c-2.26-3.64-4.49-7.31-6.68-11,2.2,3.69,4.43,7.36,6.68,11Z"/>
    <path class="cls-1" d="M611.19,562l-.45.09c.15.25.3.51.45.76.14-.25.29-.51.44-.76.03-.07.07-.13.11-.2l-.55.11ZM542.94,693.41c-.65.08-1.3.16-1.96.24-1.38.18-2.76.36-4.14.55-3.17.43-6.34.88-9.5,1.37-2.21.34-4.42.69-6.63,1.06-2.21.36-4.41.74-6.62,1.13-.87.16-1.73.31-2.6.47l-1.15,1.74,23.41-4.61,11.05-2.17s.06-.02.1-.02c-.65.07-1.31.15-1.96.24ZM611.19,562l-.45.09c.15.25.3.51.45.76.14-.25.29-.51.44-.76.03-.07.07-.13.11-.2l-.55.11ZM738.9,322.5c1.69,4.07,3.42,8.12,5.18,12.14-1.76-4.02-3.48-8.07-5.18-12.14ZM760.78,370.27c4.87,9.72,9.94,19.3,15.21,28.72-5.26-9.42-10.33-19-15.21-28.72ZM779.17,404.63c2.13,3.74,4.3,7.46,6.5,11.15-2.2-3.69-4.36-7.41-6.5-11.15ZM785.67,415.78c2.19,3.69,4.42,7.36,6.68,11-2.25-3.64-4.48-7.31-6.68-11ZM592.15,464.66l-1.18,1.79,1.93-.38c-.25-.47-.5-.94-.75-1.41Z"/>
  </g>
  <g>
    <path d="M469.56,659.72c3.7-.18,7.41-.31,11.12-.4-3.7.09-7.41.22-11.12.4Z"/>
    <path d="M502.96,659.32c3.71.09,7.42.22,11.12.4-3.71-.18-7.42-.31-11.12-.4Z"/>
    <path d="M486.11,448.57c5.3-1.04,10.62-2.01,15.92-2.88-13.89,27-29.16,53.15-45.49,77.94l-34.05,51.64-13.14,19.93,23.42-4.61,19.4-3.82c-4.98,8.16-10.11,16.24-15.34,24.18l-38.06,57.75-85.69,16.85,57.41-87.1c7.84-11.89,15.35-24.08,22.51-36.56l-34.48,6.79,28.41-43.1c16.76-25.42,32.01-52.23,45.64-80.23-9.87,1.27-19.72,2.88-29.54,4.81l-9.31,1.84,5.94-9.02c37.54-56.96,67.51-120.89,88.79-189.42l3.37-10.84,3.36,10.84c8.41,27.09,18.18,53.46,29.25,78.97-15.77,32.09-33.35,62.85-52.64,92.12l-7.12,10.81-13.14,19.95,23.43-4.64,11.15-2.2Z"/>
    <path d="M591.74,561.89c-.04.07-.08.13-.11.2l-.44-.09.55-.11Z"/>
    <path d="M634.95,662.57c-5.55.68-11.08,1.46-16.62,2.34,5.53-.88,11.07-1.66,16.62-2.34Z"/>
    <path class="cls-1" d="M691.06,698.49c-1.34-.24-2.68-.49-4.02-.73-2.21-.39-4.42-.77-6.63-1.13-2.21-.37-4.42-.72-6.63-1.06-3.31-.51-6.63-.98-9.95-1.43-1.4-.19-2.8-.37-4.2-.55l8.99,1.77,23.41,4.61-.97-1.48ZM572.15,464.66l-1.18,1.79,1.93-.38c-.25-.47-.5-.94-.75-1.41ZM591.19,562l-.56-.11c.04.07.08.13.11.2.15.25.3.51.45.76.14-.25.29-.51.44-.76l-.44-.09Z"/>
  </g>
  <g>
    <path d="M479.56,649.72c3.7-.18,7.41-.31,11.12-.4-3.7.09-7.41.22-11.12.4Z"/>
    <path d="M512.96,649.32c3.71.09,7.42.22,11.12.4-3.71-.18-7.42-.31-11.12-.4Z"/>
    <path d="M601.74,551.89c-.04.07-.08.13-.11.2-.15.25-.3.51-.44.76-.15-.25-.3-.51-.45-.76-.03-.07-.07-.13-.11-.2l.56.11.55-.11Z"/>
    <path d="M628.33,654.91c5.53-.88,11.07-1.66,16.62-2.34-5.55.68-11.08,1.46-16.62,2.34Z"/>
    <path d="M582.9,456.07l-1.93.38,1.18-1.79c.25.47.5.94.75,1.41Z"/>
    <path class="cls-1" d="M532.94,683.41c-.65.08-1.3.16-1.96.24-1.38.18-2.76.36-4.14.55-3.17.43-6.33.89-9.5,1.37-2.21.34-4.42.69-6.63,1.06-2.21.36-4.41.74-6.62,1.13-.87.16-1.73.31-2.6.47l-1.15,1.74,23.41-4.61,11.05-2.17c-.62.07-1.24.15-1.86.22ZM701.06,688.49c-1.34-.24-2.68-.49-4.02-.73-2.21-.39-4.42-.77-6.63-1.13-2.21-.37-4.42-.72-6.63-1.06-3.31-.51-6.63-.98-9.95-1.43-1.4-.19-2.8-.37-4.2-.55l8.99,1.77,23.41,4.61-.97-1.48Z"/>
    <path d="M786.14,667.43l-7.63-11.56-32.57-49.42c-9.39-14.25-18.39-28.85-26.97-43.81l41.32,8.14-34.04-51.65c-20.09-30.46-38.35-62.58-54.69-96.13,11.83,1.52,23.63,3.45,35.4,5.76l11.15,2.2-7.13-10.8c-17.74-26.92-34.07-55.14-48.89-84.48-1.95-3.83-3.86-7.68-5.75-11.55-20.29-41.64-37.62-85.45-51.75-130.95l-4.02-12.99-4.04,12.99c-13.98,45.01-31.08,88.36-51.09,129.59-1.89,3.89-3.8,7.76-5.75,11.61-15,29.81-31.55,58.46-49.55,85.78l-7.12,10.8,11.15-2.2c11.77-2.31,23.57-4.24,35.4-5.76-16.34,33.55-34.61,65.67-54.69,96.13l-34.05,51.65,41.32-8.14c-8.58,14.96-17.58,29.56-26.97,43.81l-32.74,49.67-7.63,11.58-28.43,43.12,107.79-21.2c2.44-.48,4.88-.94,7.32-1.39.87-.16,1.73-.31,2.6-.47,2.21-.39,4.41-.77,6.62-1.13,2.21-.37,4.42-.72,6.63-1.06,3.16-.49,6.33-.94,9.5-1.37,1.38-.19,2.76-.37,4.14-.55.66-.08,1.31-.16,1.96-.24.65-.09,1.31-.17,1.96-.24,21.83-2.63,43.74-3.95,65.66-3.95s42.25,1.22,63.3,3.67c1.55.18,3.09.36,4.64.56.38.05.75.09,1.13.14,1.4.18,2.8.36,4.2.55,3.32.45,6.64.92,9.95,1.43,2.21.34,4.42.69,6.63,1.06,2.21.36,4.42.74,6.63,1.13,1.34.24,2.68.49,4.02.73,1.97.37,3.93.74,5.9,1.13l107.78,21.2-28.6-43.39ZM580.97,456.45l1.18-1.79c.25.47.5.94.75,1.41l-1.93.38ZM601.63,552.09c-.15.25-.3.51-.44.76-.15-.25-.3-.51-.45-.76-.03-.07-.07-.13-.11-.2l.56.11.55-.11c-.04.07-.08.13-.11.2Z"/>
  </g>
</svg>