<?xml version="1.0" encoding="UTF-8"?>
<svg id="Calque_1" data-name="Calque 1" xmlns="http://www.w3.org/2000/svg" viewBox="0 0 2316.38 2158.66">
  <defs>
    <style>
      .cls-1 {
        fill: none;
      }

      .cls-2 {
        fill: #303031;
      }

      .cls-3 {
        fill: #f2ce7e;
      }

      .cls-4 {
        fill: #4d4c4c;
      }

      .cls-5 {
        fill: #faedcd;
      }

      .cls-6 {
        fill: #4d4d4c;
      }

      .cls-7 {
        fill: #1d1d1b;
      }

      .cls-8 {
        fill: #01916f;
      }

      .cls-9 {
        fill: #fff;
      }

      .cls-10 {
        fill: #3ab394;
      }

      .cls-11 {
        fill: #f7c2db;
      }
    </style>
  </defs>
  <g>
    <line class="cls-1" x1="820.1" y1="581.38" x2="819.99" y2="580.6"/>
    <line class="cls-1" x1="859.23" y1="847.14" x2="858.57" y2="842.63"/>
  </g>
  <g>
    <line class="cls-1" x1="898.19" y1="1014.57" x2="896.45" y2="1004.72"/>
    <line class="cls-1" x1="911.59" y1="1090.33" x2="911.11" y2="1087.6"/>
  </g>
  <path d="M1337.86,1088c-17.84-18.94-42.69-15.69-65.25-9.25-27.71,11.51-54.32,25.43-82.71,34.85-26.52,9.12-54.11,15.98-82.29,16.09-19.37.46-39.35-1.59-56.87-10.19-12.79-6.07-24.6-14.43-37.5-20.39-25.73-12.34-57.23-20.27-84.19-6.9-28.2,14.11-35.58,46.25-32.35,75.33,4.01,43.32,40.74,70.51,80.88,79.02,4.66.73,8.75.23,13.22-.07,7.16-.61,14.27-1.62,21.33-2.86,11.38-2.19,22.7-4.46,33.34-9.39,5.07-2.52,10.15-5.55,15.12-8.21,12.25-6.76,25.37-12.69,38.58-17.32,7.97-2.7,16.17-5.05,24.33-7.05,2.75-.59,9.73-2.04,12.4-2.61,4.81-.73,11.87-1.99,16.71-2.5,2.72-.28,9.77-.99,12.6-1.28,8.11-.45,17.21-.99,25.33-.82,13.98-.11,28.44,1.2,42.45,2.06,26.01,1.43,52.2,1.77,77.88-3.99,11.56-2.77,24.95-7.13,32.92-16.54,1.06-1.38,1.97-2.6,2.6-4.38,1.53-4.67,2.41-9.34,3.29-14.09,3.66-22.47,5.13-51.85-11.82-69.51ZM1339.8,1155.8c-.72,4.17-1.57,8.46-2.8,12.45,0,.01,0,.03,0,.04h-.01s0,.03,0,.04h-.01v.02c-.04.07-.1.18-.15.26-.07.16-.25.37-.37.56-5.74,7.47-18.65,11.67-27.83,13.92-8.97,2.09-18.13,3.43-27.38,4.24-1.81.17-3.64.31-5.46.42-14.1.95-28.35.78-42.36.29-14.04-.59-28.83-1.63-42.94-1.24-8.31-.02-17.6.75-25.89,1.42-2.82.35-10.14,1.28-12.87,1.62-4.94.63-12.13,2.11-17.04,2.97-2.75.64-9.75,2.31-12.62,2.97-4.05,1.12-8.41,2.41-12.47,3.59-14.95,4.83-29.84,11.04-43.67,18.51-7.51,3.9-14.95,8.65-22.31,12.54-4.88,2.47-10.25,4.2-15.66,5.74-1.03.29-2.05.56-3.09.82.12.67.25,1.29.38,1.88.27,1.02-1.25,1.56-1.65.54-.23-.6-.46-1.24-.68-1.91-9.26,2.35-18.72,4.07-28.19,5.3-5.37.6-11.29,1.46-16.55.83-32.48-6.47-65.6-26.68-75.57-59.87-4.72-16.04-4.96-33.66-1.16-49.95,9.15-37.35,43.01-50.17,78.11-41.78,4.4,1.03,8.75,2.35,13.05,3.89.38,13.06,2.05,26.09,5.09,38.82,3.56,13.81,8.26,28.09,19.42,37.85,2.96,2.62,6.4,4.34,10,5.21-9.45,9.4-9.24,44.03-4.2,59.7.66-.16,1.31-.33,1.95-.51-2.86-15.64-3.05-52.74,12.06-58.86,2.03-.34,4.04-.94,5.96-1.79.84-.17,1.69-.34,2.55-.51,1.26-.18,2.23-1.29,2.16-2.6-.01-.28-.07-.55-.17-.8-.03-1.5-1.38-2.97-3.22-2.45-19.77,6-29.64-7.74-36.81-24.08-6.58-15.71-10.29-32.5-12.97-49.32,6.97,2.58,13.76,5.72,20.29,9.12,10.02,5.36,19.5,11.74,29.51,17.26,7.78,4.12,15.91,7.55,24.48,9.65,63.94,14.8,130.2-10.4,187.81-36.49,4.42-1.92,8.75-4.03,13.14-5.87,2.5-1.06,5.03-2.02,7.6-2.8,18.42-4.54,39.12-7.98,53.36,7.44,14.11,14.63,12.2,42.14,9.2,60.92Z"/>
  <path class="cls-7" d="M1281.23,1187.33c-.02,1.33-.05,2.35-.09,2.9-.1,1.39-1.3,2.43-2.69,2.33-1.2-.08-2.14-1-2.31-2.14-.12-.69-.25-1.59-.37-2.67-.99-8.39-2.09-27.14-3.57-32.22-1.53-4.65-4.11-13.35-9.36-14.31-4.78-.52-9.54.08-14.37.54-18.03,2.03-37.95,5.79-55.92,9.01l-37.32,6.94c-.41.07-.81-.2-.89-.62-.07-.38.16-.76.53-.87,24.35-7.16,48.92-13.5,73.8-18.54,9.45-1.86,18.91-3.64,28.61-4.33,2.08-.1,4.57-.2,6.64.07.44.06.88.14,1.3.24,11.65,2.78,14.89,19.57,15.8,29.75.19,2.74.31,17.24.21,23.92Z"/>
  <g>
    <path class="cls-6" d="M818.59,899.37c-.08-.16-.53-.66-.89-.78-.52-.17-.81-.27-.97-.31.02,0,.02-.01,0-.03h.24s.46-.03.46-.03c.31-.01.6-.01.89-.01.06.25.12.49.18.74l.07.28.03.14Z"/>
    <path class="cls-6" d="M907.47,1002.84h-.11s.05-.01.06-.01c.02,0,.03.01.05.01Z"/>
    <path class="cls-6" d="M1063.73,986.4s-.05.02-.06.05l-.02.03s.02.01-.19.13c-.45.31-.62.47-.71.58.11-.22.23-.44.34-.66.21-.04.43-.09.64-.13Z"/>
    <path class="cls-6" d="M1172.49,975.97c-.06-.04-.54-.35-.75-.43-.05-.02-.49-.22-.74-.29-.24-.09-.75-.18-.79-.19-.06-.04-.13-.06-.2-.06.54-.02,1.08-.05,1.62-.08.17.24.36.47.54.71.11.12.24.24.32.34Z"/>
    <path class="cls-6" d="M1304.93,960.48c-.16.06-.51.21-.73.35-.24.17-.23.14-.39.26-.09.08-.13.12-.15.13.14-.18.29-.36.43-.55.17-.04.33-.07.5-.11.09-.02.08-.03.13-.04.07-.02.14-.03.21-.04Z"/>
  </g>
  <g>
    <line class="cls-1" x1="947.11" y1="331.08" x2="946.04" y2="333.16"/>
    <line class="cls-1" x1="820.44" y1="578.16" x2="819.99" y2="579.04"/>
  </g>
  <path class="cls-7" d="M817.67,579.7s-.03.07-.04.11c-.02-.13-.03-.25-.03-.38.02.09.04.18.07.27Z"/>
  <g>
    <line class="cls-1" x1="1311.89" y1="509.42" x2="1309.04" y2="506.37"/>
    <line class="cls-1" x1="1115.89" y1="299.88" x2="1114.25" y2="298.13"/>
    <path class="cls-7" d="M1116.02,300.03l-.13-.15c.67-.59,1.04-1.51.7-2.61-.06-.18-.12-.37-.18-.55.03.03.06.05.08.08h0c.63,1.07.41,2.42-.48,3.23Z"/>
    <path class="cls-7" d="M1311.16,509.92c-.05.12-.12.22-.2.3.04-.09.09-.18.14-.27.1-.2.09-.08.06-.03Z"/>
  </g>
  <path class="cls-7" d="M1116.02,300.03l-.13-.15c.67-.59,1.04-1.51.7-2.61-.06-.18-.12-.37-.18-.55-.01-.04-.03-.07-.04-.11.03.03.06.07.08.11.02.03.03.05.04.08h0c.63,1.07.41,2.42-.48,3.23Z"/>
  <g>
    <path d="M1817.06,1284.97c-1.36-4.56-.63-9.63,1.93-13.62,11.46-14.86,4.34-31.03-6.8-43.46-4.13-4.89-4.33-11.28-1.55-16.83,3.85-9.3,1.3-20.63-6.21-27.38-3.96-3.6-8.37-6.07-12.93-7.98-13.27-5.42-27.63-6.38-41.72-5.79-2.21.11-4.41.27-6.61.47.48-5.16.7-10.3.77-15.49.13-15.15-1.08-60.31-25.81-51.86-25.96,9.44-20.01,36.85-14.28,57.8.86,3.27,1.91,6.48,2.78,9.74.6,2.33,1.14,4.67,1.46,7.08-10.37,3.37-18.07,9.97-18.58,21.62-.1,2.08,0,4.1.27,6.06-44.33,11.85-88.77,23.41-133.43,33.95-39.72,9.46-80.72,18.4-120.82,26.21-3.42.65-9.48,1.86-14.03,2.78-20.19-137.95-40.93-275.81-62.2-411.09.79-.97,1.7-1.87,2.78-2.69,3.61-2.86,9.19-4.92,12.01-9.26,1.92-2.57,2.6-6.03,2.47-9.19-.37-5.47-1.78-10.13-3.03-15.18-2.58-9.85-5.29-19.5-7.68-29.31-4.31-.68-8.56-1.09-12.8-1.3-11.09-86.85-23.94-179.68-35.87-266.52-.51-3.93-1.2-9.08-2.31-13.07.49-1.14.32-2.51-.55-3.51-7.94-9.08-15.94-18.11-23.99-27.09-5.98-6.7-18.18-20.22-24.22-26.86-24.1-26.54-49.01-53.55-73.55-79.76-24.57-26.32-49.08-52.7-76.06-76.63.63,1.06.41,2.41-.48,3.22l-.13-.15c.67-.59,1.04-1.51.7-2.61-.06-.18-.12-.37-.18-.55-.01-.04-.03-.07-.04-.11-4.34-13.21-8.9-26.31-13.71-39.35-6.9-18.24-13.55-36.82-22.71-54.19-1.54-2.63-3.33-6.04-6.19-7.87-1.35-.84-3.01-1.18-4.6-.83l-.58.1-1.16.2c-30.25,4.51-74.08,10.89-104.4,15.46l-2.66.4c-7.14,1.01-12.53,7.59-12.46,14.73-.43,7.04-.8,14.07-1.16,21.11-1.33,28.01-2.36,56-2.13,84.07-22.91,40.22-44.59,81.08-65.88,122.15-21.31,41.17-42.35,82.83-60.96,125.31-.22.55-.26,1.06-.17,1.51v.02c.02.09.04.18.07.27-.02.03-.03.07-.04.11-.12.34-.16.73-.11,1.15l36.28,262.49c-9.55,1.64-19.1,3.26-28.66,4.82-19,3.05-27.13,18.16-21.22,36.06,2.37,6.98,6.05,13.5,11.3,18.6,1.45.45,1.38.37,1.34.33.02,0,.04.01.06.02l.19.03.38.04c2.59.37,5.3.97,7.7,2.02l.06.09c2.44,3.49,5.41,9.11,7.55,12.84,13.13,23.71,26.22,47.15,41.86,69.56,4.11,5.55,10.68,15.17,17.92,21.98l14.34,81.1c-10.24,8.43-17.11,20.19-20.03,33.9-.25,1.2-.71,3.67-.97,4.87-.33,2.45-.61,4.92-.87,7.37-.7,9.72-.84,19.47.08,29.21,3.2,38.4,23.16,67,57.45,80.3.03,1.14.52,2.21.48,3.36l1.03,7.42c3.09,22.35,6.95,50.2,11.01,79.52-2.02.17-3.9.32-3.91.32-89.61,8.29-179.8,11.84-269.76,13.53-.29-1.96-.75-3.93-1.42-5.9-3.73-11.09-12.98-15.25-23.86-15.63-.35-2.4-.48-4.8-.55-7.19-.19-22.72,1.73-58.47-28.4-61.59-30.48-3.09-14.86,50.76-6.77,71.54-2.17.42-4.33.89-6.48,1.39-13.69,3.34-27.23,8.24-38.47,17.14-3.84,3.1-7.4,6.69-10.2,11.24-5.57,8.9-4.53,20.97,2.28,28.86,3.79,4.17,4.92,10.58,2.53,15.78-.89,2.03-2,4.31-2.72,6.46-3.45,9.34-4.66,20.24.73,29.21,1.96,3.19,4.64,5.68,7.51,7.97,3.57,3.12,5.68,7.78,5.64,12.55-.28,4.46-1.33,8.82-1.14,13.38.2,14.07,8.87,19.42,21.96,19.95,2.12.19,7.86.63,10.05.81,12.26,1.04,24.7,1.12,37,.48,18.18-1.14,39.66-18.36,46.85-34.76,2.02-4.5,3.07-9.61,2.66-14.69-1.85-5.71-4.34-11.41-7.42-16.56-1.16-2.15-2.69-4.19-2.49-6.51.16-2.11,1.79-5.37,2.48-7.46.22-.58.44-1.17.64-1.75.4-.08.8-.24,1.19-.51,1.16-.83,2.32-1.7,3.59-2.4,6.08-3.52,12.77-5.88,19.39-8.18,10.62-3.43,22.43-6.42,33.36-8.7,56.55-11.72,114.89-15.91,172.45-19.34,5.14-.23,27.41-1.22,38.52-1.7,5.32,38.38,10.59,76.38,14.6,105.47,3.97,28.4,13.77,98.63,23.26,166.4-3.26-4.42-6.51-8.86-9.75-13.3-2.8-3.84-10.67-14.82-13.27-18.48-8.53-12.36-19.03-25.53-34.23-29.88-55.93-14.7-83.88,117.8-91.3,157.21-7.1,66.6,59.92,116.3,110.78,146.38,4.45,2.61,8.95,5.13,13.48,7.59,31.63,17.25,64.61,31.98,98.77,43.49,30.86,10.2,76.89,22.95,86.18-20.89,2.38-10.85,1.86-21.99,3.5-32.42.15-.86.21-1.89.23-2.74-.12-4.96-2.33-10.07-4.29-14.28-4.33-8.58-9.18-16.8-14.32-24.82,89.22-.74,178.99-22.7,255.91-67.76-2.34,11.12-4.53,22.27-6.54,33.46-1.13,8.39-2.46,16.95-1.43,25.69.32,2.41,1.03,4.93,2.34,7.04,2.86,4.56,5.06,9.42,7.72,14.74,4.92,9.8,10.86,20.58,20.65,26.74,10.97,7.04,24.37,5.53,35.52.63,10.06-4.3,18.81-10.59,27.24-17.17,12.18-9.61,23.64-20.07,34.71-30.87,18.4-17.97,35.75-37,51.84-57.07,3.23-4.01,6.42-8.07,9.53-12.19,35.45-47.26,78.17-119.18,45.91-177.78-21.54-32.99-96.91-140.56-142.15-110.89-13.77,9.26-18.62,26.55-21.88,41.81-.58,2.52-1.93,8.38-3.15,13.61-10.8-75.78-21.76-152.04-32.88-228.34,34.62-8.52,72.27-17.2,106.93-23.94,33.77-6.36,68.73-12.25,103.03-14.72,15.51-1.06,31.73-1.75,47.19.12,2.08.2,4.13.6,6.19,1,1.79.35,3.67.85,5.36,1.52.72.35,1.4.46,2.02.4.36.51.72,1.01,1.1,1.51,1.24,1.78,3.69,4.51,4.45,6.48.83,2.17-.08,4.57-.59,6.95-1.53,5.8-2.33,11.96-2.53,17.97,1.01,4.99,3.45,9.61,6.64,13.37,11.46,13.75,36.86,24.34,54.64,20.37,14.17-3.22,28.18-7.79,41.71-13.08,6.03-2.29,12.91-4.4,16.78-9.98,3.46-4.65,3.46-11.16,1.93-16.47-1.08-4.43-3.31-8.33-4.81-12.54ZM1706.88,1160.1c-.73-3.26-1.27-6.55-1.73-9.83-2.03-14.87-2.15-33.53,14.72-38.86,1.9-.66,4.02-1.46,5.82-.2,9.81,7.88,10.89,43.01,11.73,59.79-8.7,1.08-17.27,2.87-25.67,5.48h0c-2.49-5.17-3.64-10.79-4.86-16.38ZM1311.1,509.95c.1-.2.09-.08.06-.03-.05.12-.12.22-.2.3.04-.09.09-.18.14-.27ZM956.28,268.13c1.2-14.26,2.26-28.53,3.18-42.81-.04-1.65,1.1-3.12,2.72-3.39l2.57-.39,5.22-.81c3.15-.49,6.49-1.01,9.98-1.56,1.38-.21,2.78-.43,4.19-.65,1.01-.15,2.02-.31,3.04-.47,2.05-.32,4.14-.65,6.26-.98,1.04-.16,2.1-.33,3.16-.5,2.14-.33,4.3-.67,6.48-1.02,2.18-.34,4.38-.68,6.59-1.04.55-.09,1.11-.17,1.66-.26,1.11-.18,2.22-.35,3.33-.53,1.05-.17,2.1-.34,3.15-.5,1.97-.32,3.95-.64,5.92-.96h.01c1.42-.22,2.83-.45,4.25-.68,1.65-.27,3.31-.54,4.95-.81,1.01-.16,2.01-.32,3.01-.49,4.66-.76,9.24-1.53,13.66-2.27,1.21-.2,2.42-.41,3.6-.61,3.16-.54,6.22-1.07,9.16-1.59.94-.16,1.87-.33,2.79-.49,1.37-.24,2.71-.48,4.02-.72h.02c3.82,5.04,6.47,11.35,9.37,17.02,6.02,12.56,11.54,25.5,17.07,38.42,5.19,12.31,10.36,24.65,15.46,37-7.67,4.87-15.38,9.67-23.09,14.47-4.66,2.89-9.31,5.79-13.96,8.7-2.1,1.52-4.82,2.14-7.3,1.3-9.68-3.15-21.79-7.46-31.53-10.36-3.6-.86-7.68-.05-10.66,2l-4.8,3.13-9.6,6.26c-3.11,2.02-11.4,7.43-14.39,9.38l-2.3,1.51c-1.45.89-3.21,1.26-4.9,1.04-10.29-1.51-27.26-3.96-38.66-5.53,2.68-20.23,4.59-40.5,6.37-60.81ZM856.29,519.37c16.36-30.62,32.25-61.92,47.74-92.95,15.27-30.65,30.28-61.41,44.54-92.56l20.72,3.53,11.29,1.85,5.65.93c4.01.95,8.36.13,11.69-2.29,9.49-6.05,21.12-13.56,30.62-19.6,2.51-1.45,5.02-1.1,7.75-.09l5.47,1.71c5.48,1.64,16.47,4.94,21.95,6.57.93.29,2.23.69,3.17.81,3.5.56,7.12-.43,9.98-2.45,3.26-2.06,6.51-4.12,9.77-6.19,9.02-5.73,18.04-11.48,27.11-17.13,21.82,28.03,46.16,53.88,70.43,79.77,28.6,30.61,58.13,61.63,87.25,91.72,11.41,11.71,24.02,24.65,35.66,36.3-.08.28-.16.56-.26.83-8.14,21.59-26.15,40.89-48.57,46.54-20.05,4.5-40.86-1.55-59.54-10.31-4.67-2.2-9.22-4.57-13.58-6.98l-2.96-1.66c-4.39-2.6-10.52-1.42-13.64,2.61l-4.18,5.24c-1.48,1.59-2.96,3.19-4.47,4.74-3.1,2.92-6.49,5.87-10.01,8.29-33.76,23.37-86.84,25.63-125.58,14.68-8.42-2.43-16.59-5.72-24.16-9.94-4.64-2.91-11.12-2.13-14.86,1.89-5.39,5.42-11.25,10.9-17.11,15.87-18.07,14.96-39.19,27.88-61.98,33.71-33.54,8.97-65.02-6.44-83.3-35.75,11.67-19.61,22.6-39.61,33.41-59.69ZM825.39,599c3.92,6.53,8.85,12.44,14.59,17.53,29.46,25.95,69.07,21.33,100.06,1.07l1.52-.93,1.46-1c3.74-2.52,7.8-5.45,11.38-8.33,5.28-4.1,10.95-9.09,15.79-13.69,7.53-6.92,14.77-14.65,21.79-22.06.84-.98,2.27-1.2,3.36-.55,8.39,4.56,17.1,8.37,26.07,11.35,46.75,16.14,101.78,14.19,138.85-21.91,3.5-3.38,6.83-7.02,9.89-10.84.98-1.21,1.93-2.44,2.85-3.69.23-.3.75-.96.97-1.24,2.43-2.89,5.14-.65,7.59.84,23.79,14.32,50.98,31.52,79.93,24.36,13.6-3.14,24.93-12.25,32.46-23.82,1.33-1.76,2.54-4.17,3.72-6.1.48-.76,1.3-2.28,1.69-3.1,3.18-6.13,5.84-12.66,8.4-19.04.48-1.39.98-2.77,1.54-4.12,0,1.37.06,2.75.19,4.11,3.21,30.2,8.73,84.33,12,114.57,5.42,50.83,11.6,106.96,17.35,157.73-5.12.12-10.25.38-15.43.6-11.64.69-23.26,1.58-34.86,2.62-26.61,2.37-53.14,5.51-79.68,8.75-27.39,3.56-54.75,6.85-81.99,11.62-3.35.48-6.57,2.39-9.1,4.62-3.85,3.35-7.08,7.37-10.08,11.34-2.2,2.87-4.13,5.8-6.26,8.38-.02,0-.05.01-.08.02-4.8,1.16-9.81,1.77-14.74,2.49-8.15,1.03-16.35,2.09-24.51,2.47-2.1.13-3-.48-5.04-1.94-7.8-6.08-16.54-11.09-25.68-14.83-1.41-.67-3.15-1.15-4.66-1.62-10.04-2.12-20.6-1.54-30.65-1.1-44.65,2.99-88.72,10.65-132.75,18.25l-37.94-242.81ZM825.27,905.55c-.06-.02-.13-.06-.19-.1.06.02.11.05.16.07l.16.07s.01,0,.01.01c-.03-.01-.08-.03-.14-.05ZM885.71,979.59c-15.92-21.22-30.55-44.02-45.99-65.84-3.18-4.36-6.23-9.04-10.13-13.08-.47-.46-1.28-1.02-1.88-1.2-2.5-.78-5.01-1.1-7.58-1.23-.63-.03-1.21-.04-1.82-.03.06.25.12.49.18.74l.07.28.03.14c-.08-.16-.53-.66-.89-.78-.52-.17-.81-.27-.97-.31.02,0,.02-.01,0-.03h.24s.46-.03.46-.03c.31-.01.6-.01.89-.01-2.04-8.54-4.65-17.62-3.5-26.27,1.42-9.31,9.36-10.48,17.19-11.57,17.28-2.73,34.77-6.07,51.94-9.14,25.03-4.5,50.08-9.05,75.22-12.78,20.12-2.73,40.45-6.1,60.68-5.07,1.04.02,3.28.39,4.2.54l.51.08.43.13c2.42.64,4.8,1.72,7.11,2.69,5.61,2.4,10.99,5.2,15.98,8.71,3.03,2.05,5.44,4.31,9.32,5.64,3.63,1.1,7.55.3,11.22.02,11.34-1.31,22.47-2.7,33.65-5.02,1.23-.34,2.1-.47,3.55-1.27.51-.36,1-.79,1.43-1.26,4.43-5.49,7.89-11.31,12.55-16.36,2.51-2.58,4.93-5.43,8.64-5.98,39.46-6.8,79.48-11.54,119.34-15.81,28.43-2.9,56.96-5.42,85.51-5.95,3.19-.02,6.47-.04,9.76.01,2.01.03,4.02.08,6.02.18,2.91.14,5.79.36,8.58.71,1.62,7.72,3.35,15.44,5.07,23.04.9,3.92,1.86,8.5,2.16,12.25l.03.62-.03.5c-.02.31-.01.52-.1.79,0,.13-.04.19-.07.24-.03.05-.03.13-.06.17-.09.07-.06.16-.21.27-.13.22-.63.66-1.17,1.06-2.74,1.89-5.45,2.98-8.54,5.28-4.49,3.14-8.12,8.07-10.22,13.06-7.37,19.03-13.58,38.17-20.75,57.19-5.4,14.35-10.55,28.91-17.6,42.44-.66,1.2-1.3,2.31-2.06,3.32.17-.04.33-.07.5-.11.09-.02.08-.03.13-.04.07-.02.14-.03.21-.04-.16.06-.51.21-.73.35-.24.17-.23.14-.39.26-.09.08-.13.12-.15.13.14-.18.29-.36.43-.55-3,.65-6.01,1.1-9.12,1.56-22.05,3.12-44.26,5.35-66.46,7.74-18.88,1.83-37.99,4.09-56.88,4.95.17.24.36.47.54.71.11.12.24.24.32.34-.06-.04-.54-.35-.75-.43-.05-.02-.49-.22-.74-.29-.24-.09-.75-.18-.79-.19-.06-.04-.13-.06-.2-.06.54-.02,1.08-.05,1.62-.08-8.21-10.64-14.92-22.96-22.08-34.53-8.07-13.6-16.21-27.3-23.04-41.56-2.54-5.79-8.9-8.32-14.55-8.42-7.69-.16-14.8,1.7-21.74,4.89-1.7.87-3.56,1.84-4.63,3.6-.42.74-.5,1.06-.74,1.74-1.7,5.94-3.79,16.43-5.18,22.56-3.87,17.37-7.61,34.97-12.55,51.99-1.19,3.79-2.25,7.83-4.03,11.34.21-.04.43-.09.64-.13-.03.01-.05.02-.06.05l-.02.03s.02.01-.19.13c-.45.31-.62.47-.71.58.11-.22.23-.44.34-.66-11.42,2.34-23.12,3.49-34.75,5-35.37,4.07-71.15,8.05-106.57,10.81-4.74.3-9.59.68-14.25.51.05.03,0,.01-.05-.01h-.11s.05-.01.06-.01c.02,0,.03.01.05.01h.04c-1.6-.68-3.59-2.19-5.23-3.81-5.96-5.69-11.48-12.72-16.57-19.44ZM620.51,1270.28c1.38-1.72,3.65-1.53,5.65-1.42,17.69.43,22.75,18.39,24.93,33.24.46,3.28.85,6.59,1.06,9.92.38,5.71.83,11.44-.13,17.09-8.79-.18-17.53.49-26.19,1.86-3.85-16.39-12.55-50.42-5.32-60.69ZM690.38,1441.2c1.13,2.38,2.05,4.88,2.95,7.39.01-.1.02-.2.02-.3l.13.7c-.05-.13-.1-.27-.15-.4-.19,3.87-1.38,7.66-3.25,11.19-2.41,4.42-5.54,8.44-9.12,12.03-5.33,5.35-11.68,9.76-18.26,13.19-4.69,2.36-9.26,4.11-14.26,4.39l-3.34.19c-6.62.38-13.23.95-19.84,1.24-7.7.32-15.47.35-23.19.08-4.72-.13-9.74-.57-13.4-3.79-2.99-2.84-3.82-7.09-3.76-11.21-.09-4.4,1.22-8.74,1.63-13.14.28-5.12-1.31-10.28-4.29-14.45-1.35-2-3.19-3.62-4.91-5.3-4.15-4.01-5.88-9.59-5.27-15.39.37-3.98,1.58-7.83,3.21-11.5.68-1.66,2.01-4.06,2.85-5.66,1.27-2.46,2.12-5.14,2.49-7.89.88-6.52-1.03-13.45-5.29-18.59-.59-.81-1.18-1.69-1.6-2.61-3.21-6.61-.83-13.27,4.17-18.15,4.17-4.39,9.12-7.71,14.6-10.54,8.06-4.11,16.71-7.2,25.65-9.46h.09c7.73-1.96,15.63-3.31,23.44-4.18,4.29-.43,8.59-.72,12.83-.73,3.72.02,7.82.04,11.15,1.69,8.89,4.4,9.1,16.65,8.26,25.57-1.29,7.56,1.8,15.91,7.5,20.93,8.54,7.83,7.88,18.46,4.23,28.85-.6,1.64-1.68,4.64-2.18,6.33-.76,2.56-.48,5.85.71,8.11,2.06,4.02,4.43,7.37,6.2,11.41ZM944.84,1370.19c-9.81.38-20.04.77-23.58.93-54.97,2.92-110.67,6.8-164.86,16.86-14.16,2.65-28.9,6.08-42.65,10.42-6.71,2.26-13.39,4.71-19.67,8.05-.12.07-.23.14-.35.21,1.29-8.92-.56-17.63-7.97-24.79-3.39-3.32-5.36-7.85-5.21-12.5.55-4.42,1.08-8.84,1-13.27,45.86,3.06,91.8,2.7,137.68.67,35.17-1.68,70.99-4.63,106.12-9.62,8.82-1.25,17.6-2.63,26.31-4.15l3.9-.69c1.25,9.03,2.52,18.18,3.79,27.33-3.95.15-9.17.35-14.51.55ZM1147.81,1882.67l.11.51c.06.23,0,.25.04.42,0-.03.02-.07.05-.1l-.03.16v.09c-2.1,13.07-.45,25.87-4.94,38.18-5.64,15.88-23.9,14.68-37.82,12.18-19.4-3.91-38.29-10.81-56.74-18.04-23.27-9.37-45.93-20.33-67.66-32.85-45.6-26.64-118.57-78.67-111.71-138.25,2.43-12.8,7.28-35.52,14.16-59.15h0c10.6-36.4,26.01-74.91,44.83-82.62,15.2-4.87,28.55,17.87,36.49,28.31,12.6,17.13,25.41,34.07,38.34,50.92,7.35,9.59,14.74,19.14,22.14,28.69,10.49,13.53,21,27.03,31.49,40.55,0,0,0,.02.02.03,9.6,12.37,19.16,24.76,28.65,37.21,8.83,11.67,17.7,23.35,26.31,35.2,4.84,6.64,9.59,13.33,14.22,20.11,4.16,6.1,8.21,12.26,12.12,18.52,3.82,6.46,7.94,12.93,9.93,19.93ZM1453.13,1625.34c4.08-15.05,8.14-30.11,12.08-45.19.26-.99.52-1.97.78-2.96,3.92-15.06,7.74-30.15,11.39-45.28,3.34-12.95,7.07-39.4,23.56-40.72,33.95-.21,90.54,81.03,109.02,108.93,6.72,12.04,9.33,25.26,9.09,38.88h0c-.58,33.1-17.96,68.44-33.75,94.56-10.4,17.03-22.07,33.39-34.67,48.9-22.13,27.14-46.7,52.61-74.01,74.5-11.69,9.02-32.4,24.83-47.06,15.77-3.44-2.19-6.26-5.37-8.66-8.85-5.98-8.67-9.48-18.9-15.24-28.27l-.07-.12s-.01-.01-.01-.02l-.05-.07s.03,0,.04.02l-.02-.1c-.02-.12-.07-.14-.1-.34l-.11-.53c-.89-7.26.41-14.85,1.44-22.33,1.52-9.79,3.52-19.66,5.66-29.5,1.23-5.42,2.48-10.83,3.76-16.24,2.31-9.74,4.69-19.47,7.14-29.18,9.4-37.4,19.69-74.59,29.79-111.84,0,0,0-.01,0-.02ZM1447.65,1584.8c-13.9,54.81-29.37,109.28-42.04,164.44-69.72,44.83-151.93,69.43-234.75,74.28-13.5.84-27.03,1.2-40.57,1.07-4.79-6.82-9.67-13.58-14.48-20.4-8.74-12.1-17.6-24.12-26.52-36.1-23.03-30.91-46.5-61.54-69.63-92.35h0c-21.14-137.86-46.09-297.96-64.88-419.98l-.84-5.38c.34.09.69.18,1.04.27,12.49,3.26,25.37,4.51,38.23,4.79.65,0,1.18-.5,1.2-1.14.02-.65-.49-1.19-1.14-1.21-6.34-.18-12.69-.56-18.97-1.44-7.52-1-14.48-2.52-20.9-4.52-3.4-1.05-6.64-2.24-9.74-3.57-42.3-17.96-57.09-59.69-52.3-110.64,1.78-16.99,8.58-29.33,18.48-37.91,2.11-1.84,4.36-3.5,6.74-5,16.79-10.59,39.69-13.07,62.13-10.45,1.28.17,1.58-1.6.36-1.91-6.37-1.28-12.78-1.89-19.25-2.03-12.98-.27-26.2,1.31-38.3,6.42-2.02.83-3.96,1.76-5.83,2.79l-5.72-32.38s-.01,0,0,0v-.02l-6.24-35.25c.8.23,1.6.38,2.39.45,3.25.19,6.67.13,9.78-.02,5.39-.28,10.76-.66,16.13-1.1h0c14.95-1.25,29.81-3.04,44.61-4.85,26.83-3.5,53.51-7.22,80.16-12.17,3.14-.62,6.42-1.25,9.6-2.15.94-.28,1.99-.61,3.02-1.24,1.53-1.07,1.72-1.54,2.5-2.57,2.83-4.84,3.97-10.23,5.46-15.48,4.42-17.62,7.79-35.21,11.38-52.92,1.17-5.5,3.07-15.51,4.59-21.2,5.52-3.09,19.37-7.04,23.92-2.28,6.67,14.7,13.52,30.51,20.57,45.05,4.95,10.18,10.09,20.44,16.12,30.17,2.69,4.12,5.24,8.54,9.31,11.77.8.6,1.85,1.19,2.95,1.54,1.22.39,2.32.46,3.49.49,11.29-.24,22.48-1.54,33.57-2.5,34.28-3.48,68.57-6.71,102.59-12.51,1.99-.46,4.17-.83,5.97-1.93,1.43-.87,2.53-1.95,3.48-3.13,2.65-3.39,4.56-7.3,6.34-11.12.24-.51.47-1.02.71-1.53,12.88-29.38,22.09-61.53,32.61-91.83,13.18,110.08,28.38,230.67,42.52,339.97,15.51,119.95,33.18,253.03,50.14,378.72ZM1693.97,1236.52c-5.14,8.94-4.49,17.83-.78,26.04-1.28-.29-2.56-.54-3.76-.74-11.47-1.89-23.78-1.93-35.38-1.54-14.47.41-29.28,1.92-43.65,3.58-48.85,6.09-97.76,16.5-145.67,27.68-3.95.97-18.23,4.49-29.4,7.25-3.44.85-6.58,1.63-9.04,2.24-1.33-9.16-2.67-18.33-4.02-27.49,2.49-.26,5.46-.57,5.46-.58,6.53-.72,14.24-1.6,21.23-2.56,1.79-.24,3.54-.49,5.21-.74,22.75-3.22,47.54-7.73,69.96-12.4,56.41-12.18,112.42-27.06,166.73-46.66,1.16,4.28,2.9,8.38,4.65,12.47,1.44,4.43.8,9.33-1.54,13.45ZM1816.75,1310.09c-2.38,4.54-7.46,6.47-12.12,7.96-1.4.46-2.81.92-4.23,1.35-5.97,1.87-12.01,3.55-18.07,5.03-7.96,1.89-16.12,3.57-24.11,5.35-8.43,1.25-17.58-1.05-25.63-4.03-11.09-4.39-23.13-11.33-27.38-23.03-.02.14-.02.29-.03.43l-.07-.68c.03.08.06.17.1.25.28-5.5,1.07-10.78,2.53-16.11.82-3.09,1.88-6.65.62-10.01-.93-2.82-3.36-5.53-4.99-7.94-6.41-8.98-9.97-18.99-3.94-28.89,3.36-5.42,4.53-12.44,2.68-18.71-2.56-6.8-5.47-14.09-4.77-21.24.73-8.69,7.09-11.85,14.56-13.81,11.47-3.2,23.47-4.84,35.39-5.3.95-.04,1.91-.07,2.86-.09,15.95-.03,34.09,1.01,46.82,11.29,4.24,3.68,5.83,10.12,3.88,15.42-.39,1.15-.92,2.3-1.22,3.48-1.63,5.43-1.11,11.34,1.09,16.43,1.49,3.53,4.12,6.59,6.86,9.22,3.11,3.33,5.85,7.02,7.76,11.13,2.63,5.69,2.93,12.17-.24,17.59-1.18,2.09-2.51,4.16-3.25,6.46-1.71,4.82-1.8,10.22-.11,15.06,1.61,4.12,4.08,7.93,5.21,12.18,1.11,3.71,1.59,7.79-.2,11.21Z"/>
    <path class="cls-3" d="M1056.56,1751.67c-17.1-17.1-34.19-34.2-51.28-51.31-18.03-18.03-37.22-36.76-61.82-43.46-15.89-4.34-34.54-2.56-46.36,8.92-5.82,5.65-9.5,13.09-13.83,19.99,10.6-36.39,26.01-74.9,44.83-82.61,15.2-4.87,28.55,17.87,36.49,28.31,12.6,17.13,25.41,34.07,38.34,50.92,7.35,9.59,14.74,19.14,22.14,28.69,10.49,13.53,21,27.03,31.49,40.55Z"/>
    <path class="cls-5" d="M1148.01,1883.5l-.03.16v.09c-2.1,13.07-.45,25.87-4.94,38.18-5.64,15.88-23.9,14.68-37.82,12.18-19.4-3.91-38.29-10.81-56.74-18.04-23.27-9.37-45.93-20.33-67.66-32.85-45.6-26.64-118.57-78.67-111.71-138.25,2.43-12.8,7.28-35.52,14.16-59.15h0c4.33-6.91,8.01-14.35,13.83-20,11.82-11.48,30.47-13.26,46.36-8.92,24.6,6.7,43.79,25.43,61.82,43.46,17.09,17.11,34.18,34.21,51.28,51.31,0,0,0,.02.02.03,9.6,12.37,19.16,24.76,28.65,37.21,8.83,11.67,17.7,23.35,26.31,35.2,4.84,6.64,9.59,13.33,14.22,20.11,4.16,6.1,8.21,12.26,12.12,18.52,3.82,6.46,7.94,12.93,9.93,19.93l.11.51c.06.23,0,.25.04.42,0-.03.02-.07.05-.1Z"/>
    <path class="cls-3" d="M1619.05,1639c-1.83-7.58-4.25-14.97-7.9-21.86-6.68-12.63-17.12-22.85-27.97-32.15-18.94-16.23-41.35-30.93-66.29-31.18-20.12-.2-39.61,10.37-51.68,26.34.26-.99.52-1.97.78-2.96,3.92-15.06,7.74-30.15,11.39-45.28,3.34-12.95,7.07-39.4,23.56-40.72,33.95-.21,90.54,81.03,109.02,108.93,6.72,12.04,9.33,25.26,9.09,38.88Z"/>
    <path class="cls-5" d="M1619.05,1639h0c-.58,33.1-17.96,68.44-33.75,94.56-10.4,17.03-22.07,33.39-34.67,48.9-22.13,27.14-46.7,52.61-74.01,74.5-11.69,9.02-32.4,24.83-47.06,15.77-3.44-2.19-6.26-5.37-8.66-8.85-5.98-8.67-9.48-18.9-15.24-28.27l-.07-.12s-.01-.01-.01-.02l-.05-.07s.03,0,.04.02l-.02-.1c-.02-.12-.07-.14-.1-.34l-.11-.53c-.89-7.26.41-14.85,1.44-22.33,1.52-9.79,3.52-19.66,5.66-29.5,1.23-5.42,2.48-10.83,3.76-16.24,2.31-9.74,4.69-19.47,7.14-29.18,9.4-37.4,19.69-74.59,29.79-111.84,0,0,0-.01,0-.02,4.08-15.05,8.14-30.11,12.08-45.19,12.07-15.97,31.56-26.54,51.68-26.34,24.94.25,47.35,14.95,66.29,31.18,10.85,9.3,21.29,19.52,27.97,32.15,3.65,6.89,6.07,14.28,7.9,21.86Z"/>
    <path class="cls-5" d="M1737.42,1171c-8.7,1.08-17.27,2.87-25.67,5.48h0c-2.49-5.17-3.64-10.79-4.86-16.38-.73-3.26-1.27-6.55-1.73-9.83-2.03-14.87-2.15-33.53,14.72-38.86,1.9-.66,4.02-1.46,5.82-.2,9.81,7.88,10.89,43.01,11.73,59.79Z"/>
    <path class="cls-3" d="M1448.96,1270.4c-4,3.99-6.94,8.99-9.47,14.07-2.25,4.49-4.27,9.31-4.16,14.32-3.44.85-6.58,1.63-9.04,2.24-1.33-9.16-2.67-18.33-4.02-27.49,2.49-.26,5.46-.57,5.46-.58,6.53-.72,14.24-1.6,21.23-2.56Z"/>
    <path class="cls-5" d="M1693.97,1236.52c-5.14,8.94-4.49,17.83-.78,26.04-1.28-.29-2.56-.54-3.76-.74-11.47-1.89-23.78-1.93-35.38-1.54-14.47.41-29.28,1.92-43.65,3.58-48.85,6.09-97.76,16.5-145.67,27.68-3.95.97-18.23,4.49-29.4,7.25-.11-5.01,1.91-9.83,4.16-14.32,2.53-5.08,5.47-10.08,9.47-14.07,1.79-.24,3.54-.49,5.21-.74,22.75-3.22,47.54-7.73,69.96-12.4,56.41-12.18,112.42-27.06,166.73-46.66,1.16,4.28,2.9,8.38,4.65,12.47,1.44,4.43.8,9.33-1.54,13.45Z"/>
    <path class="cls-3" d="M1816.75,1310.09c-2.38,4.54-7.46,6.47-12.12,7.96-1.4.46-2.81.92-4.23,1.35,2.29-8.48,4.46-17.12,3.92-25.86-.58-9.17-4.69-18.62-12.63-23.24-3.5-2.04-8.06-3.63-8.99-7.57-.72-3.05,1.19-6.01,2.32-8.93,3.15-8.17-.46-18.38-8.05-22.76-2.08-1.2-4.5-2.09-5.83-4.08-1.68-2.51-1.06-5.83-.75-8.84,1.66-15.7-8.88-31.11-23.1-37.41.95-.04,1.91-.07,2.86-.09,15.95-.03,34.09,1.01,46.82,11.29,4.24,3.68,5.83,10.12,3.88,15.42-.39,1.15-.92,2.3-1.22,3.48-1.63,5.43-1.11,11.34,1.09,16.43,1.49,3.53,4.12,6.59,6.86,9.22,3.11,3.33,5.85,7.02,7.76,11.13,2.63,5.69,2.93,12.17-.24,17.59-1.18,2.09-2.51,4.16-3.25,6.46-1.71,4.82-1.8,10.22-.11,15.06,1.61,4.12,4.08,7.93,5.21,12.18,1.11,3.71,1.59,7.79-.2,11.21Z"/>
    <path class="cls-5" d="M1800.4,1319.4c-5.97,1.87-12.01,3.55-18.07,5.03-7.96,1.89-16.12,3.57-24.11,5.35-8.43,1.25-17.58-1.05-25.63-4.03-11.09-4.39-23.13-11.33-27.38-23.03.28-5.5,1.07-10.78,2.53-16.11.82-3.09,1.88-6.65.62-10.01-.93-2.82-3.36-5.53-4.99-7.94-6.41-8.98-9.97-18.99-3.94-28.89,3.36-5.42,4.53-12.44,2.68-18.71-2.56-6.8-5.47-14.09-4.77-21.24.73-8.69,7.09-11.85,14.56-13.81,11.47-3.2,23.47-4.84,35.39-5.3,14.22,6.3,24.76,21.71,23.1,37.41-.31,3.01-.93,6.33.75,8.84,1.33,1.99,3.75,2.88,5.83,4.08,7.59,4.38,11.2,14.59,8.05,22.76-1.13,2.92-3.04,5.88-2.32,8.93.93,3.94,5.49,5.53,8.99,7.57,7.94,4.62,12.05,14.07,12.63,23.24.54,8.74-1.63,17.38-3.92,25.86Z"/>
    <path class="cls-5" d="M652.02,1329.11c-8.79-.18-17.53.49-26.19,1.86-3.85-16.39-12.55-50.42-5.32-60.69,1.38-1.72,3.65-1.53,5.65-1.42,17.69.43,22.75,18.39,24.93,33.24.46,3.28.85,6.59,1.06,9.92.38,5.71.83,11.44-.13,17.09Z"/>
    <path class="cls-3" d="M959.35,1369.64c-3.95.15-9.17.35-14.51.55-3.43-9.7-10.52-18.03-19.49-23.04,8.82-1.25,17.6-2.63,26.31-4.15l3.9-.69c1.25,9.03,2.52,18.18,3.79,27.33Z"/>
    <path class="cls-5" d="M944.84,1370.19c-9.81.38-20.04.77-23.58.93-54.97,2.92-110.67,6.8-164.86,16.86-14.16,2.65-28.9,6.08-42.65,10.42-6.71,2.26-13.39,4.71-19.67,8.05-.12.07-.23.14-.35.21,1.29-8.92-.56-17.63-7.97-24.79-3.39-3.32-5.36-7.85-5.21-12.5.55-4.42,1.08-8.84,1-13.27,45.86,3.06,91.8,2.7,137.68.67,35.17-1.68,70.99-4.63,106.12-9.62,8.97,5.01,16.06,13.34,19.49,23.04Z"/>
    <path class="cls-3" d="M693.33,1448.59c-.19,3.87-1.38,7.66-3.25,11.19-2.41,4.42-5.54,8.44-9.12,12.03,1.19-10.9.11-26.3-6.17-34.09-2.63-3.27-5.89-6.29-6.98-10.33-1.23-4.58.58-9.34,1.35-14.02,2.7-16.38-9.72-33.74-26.09-36.48,7.04-8.67,2.39-22.81-7.03-28.81-5.3-3.38-11.47-4.75-17.8-4.86,7.73-1.96,15.63-3.31,23.44-4.18,4.29-.43,8.59-.72,12.83-.73,3.72.02,7.82.04,11.15,1.69,8.89,4.4,9.1,16.65,8.26,25.57-1.29,7.56,1.8,15.91,7.5,20.93,8.54,7.83,7.88,18.46,4.23,28.85-.6,1.64-1.68,4.64-2.18,6.33-.76,2.56-.48,5.85.71,8.11,2.06,4.02,4.43,7.37,6.2,11.41,1.13,2.38,2.05,4.88,2.95,7.39Z"/>
    <path class="cls-5" d="M680.96,1471.81c-5.33,5.35-11.68,9.76-18.26,13.19-4.69,2.36-9.26,4.11-14.26,4.39l-3.34.19c-6.62.38-13.23.95-19.84,1.24-7.7.32-15.47.35-23.19.08-4.72-.13-9.74-.57-13.4-3.79-2.99-2.84-3.82-7.09-3.76-11.21-.09-4.4,1.22-8.74,1.63-13.14.28-5.12-1.31-10.28-4.29-14.45-1.35-2-3.19-3.62-4.91-5.3-4.15-4.01-5.88-9.59-5.27-15.39.37-3.98,1.58-7.83,3.21-11.5.68-1.66,2.01-4.06,2.85-5.66,1.27-2.46,2.12-5.14,2.49-7.89.88-6.52-1.03-13.45-5.29-18.59-.59-.81-1.18-1.69-1.6-2.61-3.21-6.61-.83-13.27,4.17-18.15,4.17-4.39,9.12-7.71,14.6-10.54,8.06-4.11,16.71-7.2,25.65-9.46h.09c6.33.11,12.5,1.48,17.8,4.86,9.42,6,14.07,20.14,7.03,28.81,16.37,2.74,28.79,20.1,26.09,36.48-.77,4.68-2.58,9.44-1.35,14.02,1.09,4.04,4.35,7.06,6.98,10.33,6.28,7.79,7.36,23.19,6.17,34.09Z"/>
    <path class="cls-8" d="M932.03,1016.5c-11.82,8.29-19.9,21.67-22.06,35.92l-6.24-35.25c.8.23,1.6.38,2.39.45,3.25.19,6.67.13,9.78-.02,5.39-.28,10.76-.66,16.13-1.1Z"/>
    <path class="cls-8" d="M1447.65,1584.8c-13.9,54.81-29.37,109.28-42.04,164.44-69.72,44.83-151.93,69.43-234.75,74.28-13.5.84-27.03,1.2-40.57,1.07-4.79-6.82-9.67-13.58-14.48-20.4-8.74-12.1-17.6-24.12-26.52-36.1,135.94-56.09-9.72-341.84,18.23-448.95,19.55,111.72,40.4,269.7,66.24,383.99,13.62,60.27,98.72,62.11,114.91,2.48,15.59-57.44-1.53-143.85-1.34-194.07,22.09,47.9,23.16,167.66,84.51,168.98,21.65.46,40.62-14.55,46.02-35.52,24.05-93.44-17.59-204.64-21.68-300.49-12.73-82.44-20.47-165.87-36.23-247.74-12.87-46.52-48.53-90.28-38.28-137.3.24-.51.47-1.02.71-1.53,12.88-29.38,22.09-61.53,32.61-91.83,13.18,110.08,28.38,230.67,42.52,339.97,15.51,119.95,33.18,253.03,50.14,378.72Z"/>
    <path class="cls-8" d="M1338.84,790.14c-5.12.12-10.25.38-15.43.6-11.64.69-23.26,1.58-34.86,2.62-8.99-45.34-18.38-90.89-36.02-133.6-17.73-42.93-44.56-83.31-82.38-110.12.98-1.21,1.93-2.44,2.85-3.69.23-.3.75-.96.97-1.24,2.43-2.89,5.14-.65,7.59.84,23.79,14.32,50.98,31.52,79.93,24.36,13.6-3.14,24.93-12.25,32.46-23.82,1.33-1.76,2.54-4.17,3.72-6.1.48-.76,1.3-2.28,1.69-3.1,3.18-6.13,5.84-12.66,8.4-19.04.48-1.39.98-2.77,1.54-4.12,0,1.37.06,2.75.19,4.11,3.21,30.2,8.73,84.33,12,114.57,5.42,50.83,11.6,106.96,17.35,157.73Z"/>
    <path class="cls-10" d="M1396.18,1344.51c-12.73-82.44-20.47-165.87-36.23-247.74-12.87-46.52-48.53-90.28-38.28-137.3-1.78,3.82-3.69,7.73-6.34,11.12-.95,1.18-2.05,2.26-3.48,3.13-1.8,1.1-3.98,1.47-5.97,1.93-34.02,5.8-68.31,9.03-102.59,12.51-11.09.96-22.28,2.26-33.57,2.5-1.17-.03-2.27-.1-3.49-.49-1.1-.35-2.15-.94-2.95-1.54-4.07-3.23-6.62-7.65-9.31-11.77-6.03-9.73-11.17-19.99-16.12-30.17-7.05-14.54-13.9-30.35-20.57-45.05-4.55-4.76-18.4-.81-23.92,2.28-1.52,5.69-3.42,15.7-4.59,21.2-3.59,17.71-6.96,35.3-11.38,52.92-1.49,5.25-2.63,10.64-5.46,15.48-.78,1.03-.97,1.5-2.5,2.57-1.03.63-2.08.96-3.02,1.24-3.18.9-6.46,1.53-9.6,2.15-26.65,4.95-53.33,8.67-80.16,12.17-14.8,1.81-29.66,3.6-44.61,4.85h0c-11.82,8.29-19.9,21.67-22.06,35.92v.02h0s5.72,32.39,5.72,32.39c1.87-1.03,3.81-1.96,5.83-2.79,12.1-5.11,25.32-6.69,38.3-6.42,6.47.14,12.88.75,19.25,2.03,1.22.31.92,2.08-.36,1.91-22.44-2.62-45.34-.14-62.13,10.45-2.38,1.5-4.63,3.16-6.74,5-9.9,8.58-16.7,20.92-18.48,37.91-4.79,50.95,10,92.68,52.3,110.64,3.1,1.33,6.34,2.52,9.74,3.57,6.42,2,13.38,3.52,20.9,4.52,6.28.88,12.63,1.26,18.97,1.44.65.02,1.16.56,1.14,1.21-.02.64-.55,1.15-1.2,1.14-12.86-.28-25.74-1.53-38.23-4.79-.35-.09-.7-.18-1.04-.27l.84,5.38c18.79,122.02,43.74,282.12,64.88,419.97h0c23.13,30.82,46.6,61.45,69.63,92.36,135.94-56.09-9.72-341.84,18.23-448.95,19.55,111.72,40.4,269.7,66.24,383.99,13.62,60.27,98.72,62.11,114.91,2.48,15.59-57.44-1.53-143.85-1.34-194.07,22.09,47.9,23.16,167.66,84.51,168.98,21.65.46,40.62-14.55,46.02-35.52,24.05-93.44-17.59-204.64-21.68-300.49ZM1349.68,1157.51c-.88,4.75-1.76,9.42-3.29,14.09-.63,1.78-1.54,3-2.6,4.38-7.97,9.41-21.36,13.77-32.92,16.54-25.68,5.76-51.87,5.42-77.88,3.99-14.01-.86-28.47-2.17-42.45-2.06-8.12-.17-17.22.37-25.33.82-2.83.29-9.88,1-12.6,1.28-4.84.51-11.9,1.77-16.71,2.5-2.67.57-9.65,2.02-12.4,2.61-8.16,2-16.36,4.35-24.33,7.05-13.21,4.63-26.33,10.56-38.58,17.32-4.97,2.66-10.05,5.69-15.12,8.21-10.64,4.93-21.96,7.2-33.34,9.39-7.06,1.24-14.17,2.25-21.33,2.86-4.47.3-8.56.8-13.22.07-40.14-8.51-76.87-35.7-80.88-79.02-3.23-29.08,4.15-61.22,32.35-75.33,26.96-13.37,58.46-5.44,84.19,6.9,12.9,5.96,24.71,14.32,37.5,20.39,17.52,8.6,37.5,10.65,56.87,10.19,28.18-.11,55.77-6.97,82.29-16.09,28.39-9.42,55-23.34,82.71-34.85,22.56-6.44,47.41-9.69,65.25,9.25,16.95,17.66,15.48,47.04,11.82,69.51Z"/>
    <path class="cls-9" d="M1275.77,1187.75c-14.1.95-28.35.78-42.36.29-14.04-.59-28.83-1.63-42.94-1.24-8.31-.02-17.6.75-25.89,1.42-2.82.35-10.14,1.28-12.87,1.62-4.94.63-12.13,2.11-17.04,2.97-2.75.64-9.75,2.31-12.62,2.97-4.05,1.12-8.41,2.41-12.47,3.59-14.95,4.83-29.84,11.04-43.67,18.51-7.51,3.9-14.95,8.65-22.31,12.54-4.88,2.47-10.25,4.2-15.66,5.74-1.03.29-2.05.56-3.09.82-2.86-15.64-3.05-52.74,12.06-58.86,2.03-.34,4.04-.94,5.96-1.79.84-.17,1.69-.34,2.55-.51,1.26-.18,2.23-1.29,2.16-2.6-.01-.28-.07-.55-.17-.8-.03-1.5-1.38-2.97-3.22-2.45-19.77,6-29.64-7.74-36.81-24.08-6.58-15.71-10.29-32.5-12.97-49.32,6.97,2.58,13.76,5.72,20.29,9.12,10.02,5.36,19.5,11.74,29.51,17.26,7.78,4.12,15.91,7.55,24.48,9.65,63.94,14.8,130.2-10.4,187.81-36.49,4.42-1.92,8.75-4.03,13.14-5.87,2.19,10.13,3.29,20.51,3.27,30.88,0,2.61-.11,5.34-1.42,7.61-1.24,2.15-3.59,3.78-6.27,4.93-.42-.1-.86-.18-1.3-.24-2.07-.27-4.56-.17-6.64-.07-9.7.69-19.16,2.47-28.61,4.33-24.88,5.04-49.45,11.38-73.8,18.54-.37.11-.6.49-.53.87.08.42.48.69.89.62l37.32-6.94c17.97-3.22,37.89-6.98,55.92-9.01,4.83-.46,9.59-1.06,14.37-.54,5.25.96,7.83,9.66,9.36,14.31,1.48,5.08,2.58,23.83,3.57,32.22Z"/>
    <path class="cls-11" d="M1339.8,1155.8c-.72,4.17-1.57,8.46-2.8,12.45,0,.01,0,.03,0,.04h-.01s0,.03,0,.04h-.01v.02c-.04.07-.1.18-.15.26-.07.16-.25.37-.37.56-5.74,7.47-18.65,11.67-27.83,13.92-8.97,2.09-18.13,3.43-27.38,4.24.1-6.68-.02-21.18-.21-23.92-.91-10.18-4.15-26.97-15.8-29.75,2.68-1.15,5.03-2.78,6.27-4.93,1.31-2.27,1.42-5,1.42-7.61.02-10.37-1.08-20.75-3.27-30.88,2.5-1.06,5.03-2.02,7.6-2.8,18.42-4.54,39.12-7.98,53.36,7.44,14.11,14.63,12.2,42.14,9.2,60.92Z"/>
    <path class="cls-11" d="M1022.9,1237.49c-9.26,2.35-18.72,4.07-28.19,5.3-5.37.6-11.29,1.46-16.55.83-32.48-6.47-65.6-26.68-75.57-59.87-4.72-16.04-4.96-33.66-1.16-49.95,9.15-37.35,43.01-50.17,78.11-41.78,4.4,1.03,8.75,2.35,13.05,3.89.38,13.06,2.05,26.09,5.09,38.82,3.56,13.81,8.26,28.09,19.42,37.85,2.96,2.62,6.4,4.34,10,5.21-9.45,9.4-9.24,44.03-4.2,59.7Z"/>
    <path class="cls-10" d="M1288.55,793.36c-26.61,2.37-53.14,5.51-79.68,8.75-27.39,3.56-54.75,6.85-81.99,11.62-3.35.48-6.57,2.39-9.1,4.62-3.85,3.35-7.08,7.37-10.08,11.34-2.2,2.87-4.13,5.8-6.26,8.38-.02,0-.05.01-.08.02-4.8,1.16-9.81,1.77-14.74,2.49-8.15,1.03-16.35,2.09-24.51,2.47-2.1.13-3-.48-5.04-1.94-7.8-6.08-16.54-11.09-25.68-14.83-1.41-.67-3.15-1.15-4.66-1.62-10.04-2.12-20.6-1.54-30.65-1.1-44.65,2.99-88.72,10.65-132.75,18.25l-37.94-242.81c3.92,6.53,8.85,12.44,14.59,17.53,29.46,25.95,69.07,21.33,100.06,1.07l1.52-.93,1.46-1c3.74-2.52,7.8-5.45,11.38-8.33,5.28-4.1,10.95-9.09,15.79-13.69,7.53-6.92,14.77-14.65,21.79-22.06.84-.98,2.27-1.2,3.36-.55,8.39,4.56,17.1,8.37,26.07,11.35,46.75,16.14,101.78,14.19,138.85-21.91,3.5-3.38,6.83-7.02,9.89-10.84,37.82,26.81,64.65,67.19,82.38,110.12,17.64,42.71,27.03,88.26,36.02,133.6Z"/>
    <path class="cls-3" d="M1307.08,509.3c-.08.28-.16.56-.26.83-8.14,21.59-26.15,40.89-48.57,46.54-20.05,4.5-40.86-1.55-59.54-10.31,9.14-4.05,15.71-12.94,18.64-22.58,3.12-10.26,2.59-21.3.87-31.89-6.85-42.08-31.37-78.84-55.28-114.13-9.68-14.28-19.5-28.73-32.44-40.13-12.21-10.75-27.7-18.67-43.87-18.99,9.02-5.73,18.04-11.48,27.11-17.13,21.82,28.03,46.16,53.88,70.43,79.77,28.6,30.61,58.13,61.63,87.25,91.72,11.41,11.71,24.02,24.65,35.66,36.3Z"/>
    <path class="cls-5" d="M1217.35,523.78c-2.93,9.64-9.5,18.53-18.64,22.58-4.67-2.2-9.22-4.57-13.58-6.98l-2.96-1.66c-4.39-2.6-10.52-1.42-13.64,2.61l-4.18,5.24c-1.48,1.59-2.96,3.19-4.47,4.74-3.1,2.92-6.49,5.87-10.01,8.29-33.76,23.37-86.84,25.63-125.58,14.68-8.42-2.43-16.59-5.72-24.16-9.94-4.64-2.91-11.12-2.13-14.86,1.89-5.39,5.42-11.25,10.9-17.11,15.87-18.07,14.96-39.19,27.88-61.98,33.71-33.54,8.97-65.02-6.44-83.3-35.75,11.67-19.61,22.6-39.61,33.41-59.69,16.36-30.62,32.25-61.92,47.74-92.95,15.27-30.65,30.28-61.41,44.54-92.56l20.72,3.53,11.29,1.85,5.65.93c4.01.95,8.36.13,11.69-2.29,9.49-6.05,21.12-13.56,30.62-19.6,2.51-1.45,5.02-1.1,7.75-.09l5.47,1.71c5.48,1.64,16.47,4.94,21.95,6.57.93.29,2.23.69,3.17.81,3.5.56,7.12-.43,9.98-2.45,3.26-2.06,6.51-4.12,9.77-6.19,16.17.32,31.66,8.24,43.87,18.99,12.94,11.4,22.76,25.85,32.44,40.13,23.91,35.29,48.43,72.05,55.28,114.13,1.72,10.59,2.25,21.63-.87,31.89Z"/>
    <path class="cls-4" d="M1364.9,836.35l-.03.5c-.02.31-.01.52-.1.79,0,.13-.04.19-.07.24-.03.05-.03.13-.06.17-.09.07-.06.16-.21.27-.13.22-.63.66-1.17,1.06-2.74,1.89-5.45,2.98-8.54,5.28-4.49,3.14-8.12,8.07-10.22,13.06-7.37,19.03-13.58,38.17-20.75,57.19-5.4,14.35-10.55,28.91-17.6,42.44-.66,1.2-1.3,2.31-2.06,3.32-3,.65-6.01,1.1-9.12,1.56-22.05,3.12-44.26,5.35-66.46,7.74-18.88,1.83-37.99,4.09-56.88,4.95-8.21-10.64-14.92-22.96-22.08-34.53-8.07-13.6-16.21-27.3-23.04-41.56-2.54-5.79-8.9-8.32-14.55-8.42-7.69-.16-14.8,1.7-21.74,4.89-1.7.87-3.56,1.84-4.63,3.6-.42.74-.5,1.06-.74,1.74-1.7,5.94-3.79,16.43-5.18,22.56-3.87,17.37-7.61,34.97-12.55,51.99-1.19,3.79-2.25,7.83-4.03,11.34-11.42,2.34-23.12,3.49-34.75,5-35.37,4.07-71.15,8.05-106.57,10.81-4.74.3-9.59.68-14.25.51.05.03,0,.01-.05-.01h.04c-1.6-.68-3.59-2.19-5.23-3.81-5.96-5.69-11.48-12.72-16.57-19.44-15.92-21.22-30.55-44.02-45.99-65.84-3.18-4.36-6.23-9.04-10.13-13.08-.47-.46-1.28-1.02-1.88-1.2-2.5-.78-5.01-1.1-7.58-1.23-.63-.03-1.21-.04-1.82-.03-2.04-8.54-4.65-17.62-3.5-26.27,1.42-9.31,9.36-10.48,17.19-11.57,17.28-2.73,34.77-6.07,51.94-9.14,25.03-4.5,50.08-9.05,75.22-12.78,20.12-2.73,40.45-6.1,60.68-5.07,1.04.02,3.28.39,4.2.54l.51.08.43.13c2.42.64,4.8,1.72,7.11,2.69,5.61,2.4,10.99,5.2,15.98,8.71,3.03,2.05,5.44,4.31,9.32,5.64,3.63,1.1,7.55.3,11.22.02,11.34-1.31,22.47-2.7,33.65-5.02,1.23-.34,2.1-.47,3.55-1.27.51-.36,1-.79,1.43-1.26,4.43-5.49,7.89-11.31,12.55-16.36,2.51-2.58,4.93-5.43,8.64-5.98,39.46-6.8,79.48-11.54,119.34-15.81,28.43-2.9,56.96-5.42,85.51-5.95,3.19-.02,6.47-.04,9.76.01,2.01.03,4.02.08,6.02.18,2.91.14,5.79.36,8.58.71,1.62,7.72,3.35,15.44,5.07,23.04.9,3.92,1.86,8.5,2.16,12.25l.03.62Z"/>
    <path class="cls-2" d="M1111.1,297.04c-7.67,4.87-15.38,9.67-23.09,14.47-2.21-41.18-27.82-80.17-64.27-99.25,1.42-.22,2.83-.45,4.25-.68,1.65-.27,3.31-.54,4.95-.81,1.01-.16,2.01-.32,3.01-.49,4.66-.76,9.24-1.53,13.66-2.27,1.21-.2,2.42-.41,3.6-.61,3.16-.54,6.22-1.07,9.16-1.59.94-.16,1.87-.33,2.79-.49,1.37-.24,2.71-.48,4.02-.72h.02c3.82,5.04,6.47,11.35,9.37,17.02,6.02,12.56,11.54,25.5,17.07,38.42,5.19,12.31,10.36,24.65,15.46,37Z"/>
    <path class="cls-4" d="M1088.01,311.51c-4.66,2.89-9.31,5.79-13.96,8.7-2.1,1.52-4.82,2.14-7.3,1.3-9.68-3.15-21.79-7.46-31.53-10.36-3.6-.86-7.68-.05-10.66,2l-4.8,3.13-9.6,6.26c-3.11,2.02-11.4,7.43-14.39,9.38l-2.3,1.51c-1.45.89-3.21,1.26-4.9,1.04-10.29-1.51-27.26-3.96-38.66-5.53,2.68-20.23,4.59-40.5,6.37-60.81,1.2-14.26,2.26-28.53,3.18-42.81-.04-1.65,1.1-3.12,2.72-3.39l2.57-.39,5.22-.81c3.15-.49,6.49-1.01,9.98-1.56,1.38-.21,2.78-.43,4.19-.65,1.01-.15,2.02-.31,3.04-.47,2.05-.32,4.14-.65,6.26-.98,1.04-.16,2.1-.33,3.16-.5,2.14-.33,4.3-.67,6.48-1.02,2.18-.34,4.38-.68,6.59-1.04.55-.09,1.11-.17,1.66-.26,1.11-.18,2.22-.35,3.33-.53,1.05-.17,2.1-.34,3.15-.5,1.97-.32,3.95-.64,5.92-.96h.01c36.45,19.08,62.06,58.07,64.27,99.25Z"/>
  </g>
  <path d="M1269.06,1090.16c3.22,0,3.22-5,0-5s-3.22,5,0,5h0Z"/>
</svg>