<svg width="154" height="26" viewBox="0 0 154 26" fill="none" xmlns="http://www.w3.org/2000/svg">
<g clip-path="url(#clip0_188_1053)">
<path fill-rule="evenodd" clip-rule="evenodd" d="M41.1408 0.097168L28.0132 25.7224H15.6828L21.1767 15.1022H20.9302C16.3978 20.9772 9.6354 24.8447 0 25.7224V15.2492C0 15.2492 6.16399 14.8857 9.78763 11.0815H0V0.0973704H11.0002V9.13164L11.2471 9.13063L15.7422 0.0973704H24.0615V9.07436L24.3084 9.07396L28.972 0.097168H41.1408Z" fill="#FF6565"/>
<path d="M112.727 22.8943H116.269V2.58887H112.727V22.8943Z" fill="#FF6565"/>
<path fill-rule="evenodd" clip-rule="evenodd" d="M93.1946 22.6866C93.9647 23.0063 94.7476 23.166 95.5436 23.166C96.8586 23.166 98.0351 22.8465 99.0732 22.2072C100.111 21.568 100.916 20.6867 101.487 19.5638C102.058 18.4321 102.343 17.1493 102.343 15.7152C102.343 14.2811 102.049 12.9983 101.461 11.8666C100.873 10.7349 100.055 9.85811 99.0084 9.23612C97.9616 8.60549 96.7721 8.29449 95.4396 8.30313C94.5919 8.30313 93.7787 8.46727 93 8.79555C92.2213 9.12381 91.5725 9.59031 91.0534 10.195C91.0133 10.2411 90.9744 10.2876 90.9366 10.3345V2.60156H87.3809V22.894H90.9107L90.9036 20.9983C90.9949 21.1101 91.0924 21.2192 91.1962 21.326C91.7586 21.9049 92.4247 22.3584 93.1946 22.6866ZM96.8282 19.4082C96.2486 19.7624 95.5868 19.9396 94.8428 19.9396C94.1074 19.9396 93.4325 19.7581 92.8183 19.3953C92.204 19.0238 91.7152 18.5185 91.3519 17.8792C90.9972 17.2399 90.8199 16.5143 90.8199 15.7022C90.8112 14.8902 90.9842 14.1645 91.3389 13.5253C91.7023 12.8773 92.1911 12.3763 92.8053 12.0221C93.4196 11.6593 94.0987 11.4822 94.8428 11.4908C95.5868 11.4822 96.2486 11.655 96.8282 12.0092C97.4165 12.3547 97.8664 12.8514 98.1779 13.4993C98.4979 14.1386 98.658 14.873 98.658 15.7022C98.658 16.5315 98.4979 17.2659 98.1779 17.9051C97.8664 18.5444 97.4165 19.0454 96.8282 19.4082Z" fill="#FF6565"/>
<path d="M46.2734 3.81982H50.3223L53.9442 17.0276L57.7972 3.81982H61.1712L65.3499 16.7626L68.8277 3.81982H72.5392L67.0628 22.8942H63.5719L59.3229 10.2502L55.4223 22.8942H51.8925L46.2734 3.81982Z" fill="#FF6565"/>
<path fill-rule="evenodd" clip-rule="evenodd" d="M78.518 23.2313C77.1078 23.2398 75.8361 22.9288 74.7027 22.2982C73.5781 21.659 72.6913 20.7735 72.0424 19.6418C71.4022 18.5101 71.082 17.2186 71.082 15.7673C71.082 14.3593 71.4109 13.085 72.0683 11.9447C72.7258 10.8044 73.617 9.91458 74.7416 9.27532C75.8663 8.63605 77.1207 8.31641 78.505 8.31641C80.0623 8.31641 81.4249 8.66197 82.5928 9.35306C83.7694 10.0442 84.6475 11.0247 85.2271 12.2946C85.8154 13.5558 86.0274 15.0028 85.863 16.6355H74.7471C74.7782 17.286 74.9407 17.8778 75.2348 18.4107C75.5635 18.9982 76.0221 19.4561 76.6103 19.7843C77.1986 20.1126 77.8562 20.2767 78.5829 20.2767C79.1365 20.2681 79.6513 20.1731 80.1271 19.9917C80.603 19.8017 81.0052 19.5468 81.3341 19.2272C81.6714 18.9075 81.9093 18.5447 82.0477 18.1387H85.7593C85.5343 19.1321 85.0844 20.0176 84.4096 20.7951C83.7348 21.5639 82.8869 22.1643 81.8661 22.5963C80.8451 23.0281 79.7291 23.2398 78.518 23.2313ZM75.2478 13.072C75.0404 13.4331 74.8968 13.8218 74.8168 14.2383H82.1853C82.1318 13.7121 81.9692 13.2327 81.6973 12.7999C81.386 12.2902 80.962 11.8972 80.4256 11.6207C79.8892 11.3357 79.2836 11.1931 78.6088 11.1931C77.8908 11.1931 77.2376 11.3573 76.6493 11.6855C76.061 12.0138 75.5937 12.476 75.2478 13.072Z" fill="#FF6565"/>
<path d="M104.952 8.6141C104.952 7.45649 105.216 6.42849 105.744 5.53006C106.271 4.62299 107.011 3.91893 107.963 3.41789C108.923 2.90819 110.043 2.64472 111.324 2.62744V5.77625C110.727 5.7849 110.216 5.91017 109.792 6.15205C109.377 6.38529 109.057 6.72652 108.832 7.17574C108.625 7.5893 108.513 8.06874 108.497 8.6141H111.246V11.6074H108.495V22.894H104.952V11.6074H102.668V8.6141H104.952Z" fill="#FF6565"/>
<path fill-rule="evenodd" clip-rule="evenodd" d="M125.276 23.2051C123.831 23.2051 122.537 22.8897 121.395 22.2591C120.262 21.6199 119.371 20.7386 118.722 19.6157C118.082 18.484 117.762 17.2012 117.762 15.7671C117.762 14.3245 118.082 13.0373 118.722 11.9056C119.371 10.7653 120.262 9.87979 121.395 9.24917C122.537 8.61854 123.831 8.30322 125.276 8.30322C126.729 8.30322 128.027 8.61854 129.169 9.24917C130.319 9.87979 131.215 10.7609 131.855 11.8926C132.495 13.0243 132.82 14.3158 132.828 15.7671C132.82 17.2012 132.495 18.484 131.855 19.6157C131.223 20.7386 130.332 21.6199 129.182 22.2591C128.031 22.8897 126.729 23.2051 125.276 23.2051ZM125.276 19.9526C126.037 19.9526 126.712 19.7798 127.3 19.4342C127.888 19.0801 128.342 18.5876 128.663 17.957C128.983 17.3178 129.143 16.5878 129.143 15.7671C129.143 14.9378 128.983 14.2035 128.663 13.5642C128.342 12.925 127.888 12.4326 127.3 12.087C126.712 11.7328 126.037 11.5557 125.276 11.5557C124.523 11.5557 123.852 11.7328 123.264 12.087C122.684 12.4326 122.235 12.925 121.914 13.5642C121.594 14.2035 121.439 14.9378 121.447 15.7671C121.447 16.5878 121.607 17.3178 121.927 17.957C122.256 18.5876 122.706 19.0801 123.277 19.4342C123.857 19.7798 124.523 19.9526 125.276 19.9526Z" fill="#FF6565"/>
<path d="M136.656 8.61426H132.711L136.98 22.8941H140.432L143.24 13.7736L146.272 22.8941H149.672L153.954 8.61426H150.386L147.957 17.5026L145.273 8.61426H141.821L139.149 17.6984L136.656 8.61426Z" fill="#FF6565"/>
</g>
<defs>
<clipPath id="clip0_188_1053">
<rect width="153.954" height="25.7637" fill="white"/>
</clipPath>
</defs>
</svg>
