<svg width="119" height="38" viewBox="0 0 119 38" fill="none" xmlns="http://www.w3.org/2000/svg">
<path d="M12.903 12.6272H25.8064V0H0.236328V0.118381L12.903 12.6272Z" fill="#FF6565"/>
<path d="M12.9034 12.6274H0V25.2546H25.5701V25.1363C25.5701 25.156 12.9034 12.6274 12.9034 12.6274Z" fill="#FF6565"/>
<path d="M0 25.2544H12.7653V38L0 25.2544Z" fill="#FF6565"/>
<path d="M43.3659 25.2345V18.3093H51.0606V15.0341H43.3659V10.437H51.6722V7.14209H39.6172V25.2542L43.3659 25.2345ZM61.3005 11.9957C61.1032 11.8773 60.531 11.7589 59.9194 11.7589C58.6172 11.7589 57.532 12.41 56.9796 13.357V12.0549H53.3295V25.2345H56.9796V17.0663C57.2361 15.8628 58.262 15.2117 59.4853 15.2117C60.1561 15.2117 60.8072 15.3498 61.3202 15.6457V11.9957H61.3005ZM73.4739 25.2345V16.8295C73.4739 13.6727 71.422 11.7589 67.9297 11.7589C64.9308 11.7589 62.7605 13.5938 62.3856 15.9811H65.8581C66.154 15.2117 66.7657 14.7381 67.8114 14.7381C69.2911 14.7381 69.9619 15.6457 69.9619 16.7901V17.7568C69.4292 17.382 68.1073 16.9874 66.963 16.9874C64.1021 16.9874 61.8529 18.7039 61.8529 21.2096C61.8529 23.9521 64.1021 25.491 66.7459 25.491C68.1862 25.491 69.5279 24.9977 69.9619 24.544V25.2542L73.4739 25.2345ZM69.9619 21.6239C69.6463 22.3342 68.64 22.7683 67.5746 22.7683C66.4303 22.7683 65.2465 22.2947 65.2465 21.1504C65.2465 20.0258 66.4303 19.5325 67.5746 19.5325C68.64 19.5325 69.6463 19.9666 69.9619 20.6769C69.9619 20.6966 69.9619 21.6239 69.9619 21.6239ZM86.397 13.436C85.667 12.4692 84.424 11.7589 82.8654 11.7589C81.3856 11.7589 80.1821 12.3114 79.531 13.14V12.0549H75.8612V25.2345H79.5113V16.7506C79.748 15.626 80.6359 15.0341 81.5829 15.0341C82.8654 15.0341 83.4375 15.9811 83.4375 17.4017V25.2345H87.1271V16.7506C87.3638 15.626 88.2122 15.0341 89.179 15.0341C90.4417 15.0341 91.073 15.9811 91.073 17.4017V25.2345H94.7231V16.6322C94.7231 13.653 93.1052 11.7589 90.3825 11.7589C88.5081 11.7589 87.2454 12.4889 86.397 13.436ZM105.18 20.9334C104.884 22.058 103.976 22.5907 102.733 22.5907C101.116 22.5907 99.991 21.4069 99.8726 19.4339H108.652V18.3093C108.652 14.4422 106.522 11.7589 102.674 11.7589C98.9848 11.7589 96.341 14.679 96.341 18.6644C96.341 22.7288 98.9059 25.5305 102.733 25.5305C106.028 25.5305 108.1 23.735 108.574 20.9334H105.18ZM102.714 14.7381C104.213 14.7381 105.042 15.8233 105.081 17.2241H99.9713C100.287 15.5865 101.273 14.7381 102.714 14.7381ZM118.379 11.9957C118.182 11.8773 117.61 11.7589 116.998 11.7589C115.696 11.7589 114.611 12.41 114.059 13.357V12.0549H110.389V25.2345H114.039V17.0663C114.295 15.8628 115.302 15.2117 116.544 15.2117C117.215 15.2117 117.866 15.3498 118.379 15.6457V11.9957Z" fill="#FF6565"/>
</svg>
