<svg width="303" height="209" viewBox="0 0 303 209" fill="none" xmlns="http://www.w3.org/2000/svg">
<path d="M16.625 30V0H31.625V30H16.625ZM31.625 60V30H46.625V60H31.625ZM46.625 135V60H61.625V135H46.625ZM61.625 60V30H76.625V60H61.625ZM76.625 30V0H91.625V30H76.625Z" fill="#FF6565"/>
<path d="M106.625 90V0H121.625V90H106.625ZM121.625 90H136.625V135H121.625V90ZM136.625 90V0H151.625V90H136.625ZM151.625 90H166.625V135H151.625V90ZM166.625 90V0H181.625V90H166.625Z" fill="#FF6565"/>
<path d="M196.625 135V0H256.625V15H211.625V60H256.625V75H211.625V135H196.625ZM256.625 60V15H271.625V60H256.625Z" fill="#FF6565"/>
<path d="M0 208L19.8 155.5H29.85L49.95 208H40.575L36.6 197.05H13.2L9.375 208H0ZM15.75 189.7H33.975L24.75 164.05L15.75 189.7Z" fill="#FF6565"/>
<path d="M74.4275 208.975C60.5525 208.975 51.3275 198.1 51.3275 181.825C51.3275 165.55 61.6025 154.525 76.3025 154.525C88.3025 154.525 96.7775 161.65 99.1025 172.525H90.1025C88.0025 166.15 83.1275 162.25 76.3025 162.25C66.4775 162.25 60.6275 169.525 60.6275 181.6C60.6275 193.975 66.3275 201.325 75.8525 201.325C83.4275 201.325 88.3775 196 88.8275 187.525H73.9025V180.7H92.9525C97.4525 180.7 100.003 183.325 100.003 187.9V208H92.7275V192.85H92.4275C90.8525 202.9 84.2525 208.975 74.4275 208.975Z" fill="#FF6565"/>
<path d="M109.468 208V155.5H146.443V163.075H118.393V177.7H144.268V185.125H118.393V200.425H147.118V208H109.468Z" fill="#FF6565"/>
<path d="M155.098 208V155.5H164.098L189.523 194.65V155.5H198.598V208H189.523L164.098 169.075V208H155.098Z" fill="#FF6565"/>
<path d="M231.722 208.975C216.947 208.975 206.747 197.725 206.747 181.6C206.747 165.55 217.022 154.525 231.722 154.525C244.547 154.525 253.022 161.875 254.972 174.7H246.122C244.397 166.825 239.147 162.25 231.722 162.25C221.897 162.25 216.047 169.525 216.047 181.6C216.047 193.9 221.972 201.25 231.722 201.25C239.297 201.25 244.472 196.675 246.122 188.725H254.972C253.097 201.25 244.247 208.975 231.722 208.975Z" fill="#FF6565"/>
<path d="M274.172 208V187.15L254.672 155.5H264.872L278.672 179.875L292.547 155.5H302.747L283.172 187.3V208H274.172Z" fill="#FF6565"/>
</svg>
