<?xml version="1.0" encoding="UTF-8"?>
<svg xmlns="http://www.w3.org/2000/svg" viewBox="0 0 3396.11 2523.54">
  <defs>
    <style>
      .cls-1 {
        fill: #ff6565;
      }
    </style>
  </defs>
  <g id="Calque_1" data-name="Calque 1">
    <path class="cls-1" d="M1126.14,1242.34c-.68.68-1.58,1.02-2.47,1.02s-1.79-.34-2.48-1.02l-7.7-7.7c3.01-.28,6.02-.56,9.03-.87l3.62,3.62c1.37,1.37,1.37,3.58,0,4.95Z"/>
    <path class="cls-1" d="M1174.01,1426.33l-14.01-14.69c-.08-.26-.15-.53-.22-.79-1.09-3.99,4.56-6.54,6.58-2.39,2.5,5.99,5.04,11.95,7.65,17.87Z"/>
    <path class="cls-1" d="M2089.22,1949.36c-4.45,3.36-8.9,6.7-13.36,10.04-.83.63-2.02.46-2.64-.38-.19-.24-.3-.52-.35-.8h0c0-.21,0-.41-.01-.61.07-.45.3-.88.68-1.19,4.87-4.02,9.75-8.05,14.65-12.08.42,1.68.76,3.36,1.03,5.02Z"/>
    <path class="cls-1" d="M2562.32,1876.29c-.37.25-.75.49-1.13.75-.23-.28-.46-.55-.71-.82.34.11.7.16,1.05.16.26,0,.53-.03.79-.09Z"/>
    <path class="cls-1" d="M2562.58,1869.28c-.43-.14-.88-.17-1.33-.12l.63-.42.7.54Z"/>
    <path class="cls-1" d="M2564.86,1871.51s-.06.05-.08.08c-.22-.57-.6-1.09-1.12-1.49l-1.08-.82c.96.26,1.83.98,2.28,2.23Z"/>
    <path class="cls-1" d="M2565.07,1874.49c-.24.15-.48.31-.72.47.24-.32.42-.68.53-1.05.05.2.11.39.19.58Z"/>
    <path class="cls-1" d="M2089.22,1949.36c-4.45,3.36-8.9,6.7-13.36,10.04-.83.63-2.02.46-2.64-.38-.19-.24-.3-.52-.35-.8h0c-.04-.2-.04-.41-.01-.61.07-.45.3-.88.68-1.19,4.87-4.02,9.75-8.05,14.65-12.08.42,1.68.76,3.36,1.03,5.02Z"/>
    <path class="cls-1" d="M2561.24,1869.17l-2.86,1.92c.54-1.1,1.67-1.8,2.86-1.92Z"/>
    <path class="cls-1" d="M2562.58,1869.28c-.43-.14-.88-.17-1.33-.12l.63-.42.7.54Z"/>
    <path class="cls-1" d="M2561.24,1869.17l-2.86,1.92c.54-1.1,1.67-1.8,2.86-1.92Z"/>
    <path class="cls-1" d="M2562.32,1876.29c-.37.25-.75.49-1.13.75-.23-.28-.46-.55-.71-.82.34.11.7.16,1.05.16.26,0,.53-.03.79-.09Z"/>
    <path class="cls-1" d="M2564.86,1871.51s-.06.05-.08.08c-.22-.57-.6-1.09-1.12-1.49l-1.08-.82c.96.26,1.83.98,2.28,2.23Z"/>
    <path class="cls-1" d="M2565.07,1874.49c-.24.15-.48.31-.72.47.24-.32.42-.68.53-1.05.05.2.11.39.19.58Z"/>
    <path class="cls-1" d="M2587.83,1562.59c-.53-2.35-1.09-4.69-1.69-7.02.12-.13.25-.26.36-.4.48,2.47.92,4.95,1.33,7.42Z"/>
    <path class="cls-1" d="M2587.83,1562.59c-.53-2.35-1.09-4.69-1.69-7.02.12-.13.25-.26.36-.4.48,2.47.92,4.95,1.33,7.42Z"/>
    <path class="cls-1" d="M951.32,899.03c-1-1.62-2.88-3.4-4.12-4.81l-4.07-4.37c-4.05-4.36-12.29-13.05-16.41-17.34-1.34-1.39-4.94-5.09-6.24-6.42-4.15-4.25-10.29-6.68-16.25-6.08-15.59,1.26-23.92,19.46-14.46,31.93,1.13,1.61,3.09,3.26,4.46,4.62,2.78,2.61,10.18,9.57,13.05,12.27,2.83,2.67,10.29,9.71,13.01,12.3l2.15,2.07c7.01,7.07,19.3,7.05,26.38.1,6.54-6.11,7.68-16.87,2.5-24.27ZM946.63,921.11c-5.88,6.32-16.11,6.12-21.89-.21l-2.07-2.15c-2.62-2.76-9.6-10.16-12.3-13.01-2.67-2.84-9.69-10.31-12.27-13.05l-2.05-2.17c-5.29-5.34-5.21-14.6.25-19.75,5.21-5.18,14.21-5.09,19.29.21,1.34,1.31,5.04,4.9,6.42,6.24,4.29,4.12,12.98,12.36,17.35,16.4l4.36,4.08c1.11,1.08,3.09,2.72,3.96,3.95,4.52,5.56,3.98,14.28-1.05,19.46Z"/>
    <path class="cls-1" d="M1205.37,1163.04c-17.09-17.91-34.12-35.89-51.58-53.45-.49-.52-3.44-3.43-3.85-3.87-8.14-8.88-22.93-9.1-31.28-.4-8.52,8.48-8.15,22.9.76,30.93.33.34,3.61,3.45,3.93,3.79,16.11,15.44,37.65,36.21,53.48,51.55,7.58,8.49,21.15,9.35,29.36,1.27,8.55-8.24,7.89-21.95-.82-29.82ZM1204,1190.66c-5.6,5.96-15.62,6.84-22.01,1.64-1.87-1.43-4.37-4.33-6.06-5.99-8.1-8.38-16.24-16.71-24.29-25.14l-24.22-25.2c-.51-.52-3.36-3.5-3.8-3.93-2.38-2.39-4.09-5.47-4.53-8.83-2-13.24,13.09-22.44,23.84-14.4,1.02.72,1.95,1.72,2.86,2.61,9.27,9.25,18.67,18.42,28.13,27.48,8.37,8.1,16.83,16.11,25.26,24.16,1.69,1.67,4.55,4.14,5.97,5.96,5.06,6.22,4.47,15.93-1.15,21.64Z"/>
    <path class="cls-1" d="M1752.75,2028.98c.92.94,1.84,1.88,2.75,2.82,3.04-.14,6.07-.29,9.1-.43,1.49-.07-13.39-4.19-11.85-2.39Z"/>
    <path class="cls-1" d="M1174.01,1426.33l-14.01-14.69c-.08-.26-.15-.53-.22-.79-1.09-3.99,4.56-6.54,6.58-2.39,2.5,5.99,5.04,11.95,7.65,17.87Z"/>
  </g>
  <g id="Calque_2" data-name="Calque 2">
    <path class="cls-1" d="M1752.23,854.94c.04.78.11,1.55.25,2.33,9.31,9.25,32.63,32.57,41.15,41.04,3.52,3.49,7.01,7.02,10.55,10.5.03-.18.05-.37.08-.57-17.4-17.79-34.75-35.57-52.03-53.3ZM971.77,1004.57c-2.26,1.93-4.52,3.86-6.77,5.81,1.1,1.11,2.2,2.23,3.3,3.35,2.03-2.13,4.05-4.25,6.07-6.38,1.65-1.91-.7-4.18-2.6-2.78Z"/>
    <path class="cls-1" d="M2665.37,1804.03c-.04-.99-.49-1.98-1.33-2.64l-189.84-150.33c9.45-7.73,18.95-15.39,28.34-23.2,8.05-1.25,16.02-2.81,23.95-5.07,2.17-.63,4.3-1.34,6.43-2.28,1.78-.87,3.34-2.02,4.87-3.12,6.06-4.55,11.55-9.31,17.12-14.3,19.03-17.49,37.78-35.16,53.87-55.6,1.74-2.42,4.04-5.46,4.81-8.76.34-1.77.13-2.77-.12-4.31-.54-2.64-1.46-5.19-2.36-7.5-8.97-21.38-23.7-45.83-43.61-58.88-7.05-4.65-15.35-6.43-23.62-5.36-11.3,1.29-22.08,5.03-32.45,9.17-13.3,5.44-26.17,11.78-38.66,18.8h-.01c-.8.18-1.6.35-2.39.53-30.38,7.14-59.86,16.62-90.56,21.83-22.93,4.2-46.29,6.12-69.58,5.6,6.59-4.42,12.94-9.22,19.1-14.14,37.68-28.92,157.25-145.02,141.4-193.34-17.71-47.82-114.82-84-162.9-79.15-3.14.24-6.82.83-9.9,1.39-3.15.73-6.34,1.93-9.2,3.35-1.02.63-2.73,3.12-2.77,3.26l-.08.16-.21.38-.41.76-.8,1.52-1.61,3.03c-15.91,30.07-31.66,60.47-46.4,91.12-1.4,2.94-2.79,5.88-4.19,8.82-.2.42-.4.84-.59,1.25-.33-.51-.67-1.02-1-1.52-3.32-4.98-6.89-9.8-11.05-14.08-52.63-55.58-134.44-137.43-188.46-192.62-32.92-33.28-66.23-67.01-99.69-100.97,28.09-30.07,56.4-60.2,83.55-89.04.03-.02.04-.04.06-.05,11.18-8.73,17.75-22.95,18.64-37.08,1.01-18.28-11.38-33.82-25.72-43.41-21.01-14.01-45.67-21.09-70.62-23.59-8.69-.77-17.56-.87-26.19,1.35-4.09,1.1-7.65,2.74-10.7,4.83-1.42-.79-3.35-.68-4.56.97-3.55,4.92-6.99,9.91-10.39,14.92-10.11,14.93-20.07,30.45-29.58,45.73-6.18,9.93-12.24,19.93-18.22,29.99-10.34-10.56-20.69-21.12-31.01-31.68,0,0-.01,0-.01,0-.29-1.19-.38-2.42-.35-3.69l.43-7.62c1.82-34.74,3.87-72.06,5.32-106.75,1.53-46.03,3.75-92.19-1.7-138.18-1.48-8.84-3.09-23.53-10.83-29.61-13.73-10.86-28.39-20.8-46.01-24.84-15-3.52-30.46-2.42-44.98,1.85-6.03,1.66-12.85,4.45-18.67,6.84-19.04,8.47-37.22,18.49-54.81,29.5.87-3.46.63-7.12-1.33-10.97-6.44-12.53-23.56-37.13-37.37-41.37-2.54-.81-5.6-.86-8.2.05l-.9.35-1.18.54-1.01.48c-20.64,10.55-40.83,21.8-60.85,33.37-40.06-40.57-80.55-80.73-121.93-119.99-5.63-5.16-16.78-15.5-22.66-19.93-12.55-9.64-25.63-19.41-39.62-26.89-4.94-2.71-10.49-5.11-15.93-6.78-.9-.24-1.86-.45-2.79-.66l-2.81-.61c-3.17-.46-6.24-.61-9.51-.41-4.29.37-8.09,1.44-10.05,1.88-2.17.58-3.76.13-6.28.33-6.43.69-12.45,2.6-18.62,4.08-94.2,26.04-192.4,58.48-285.92,87.72-65.98,21.2-131.86,42.2-197.61,64.14-8.37,3.11-16.21,6.74-24.11,10.7-21.13,10.88-41.18,23.22-57.45,41.46-3.76,4.18-7.21,8.96-10.06,13.92-8.7,15.66-9.99,34.68-5.09,51.67,2.74,9.49,7.38,18.47,13.51,26.17,1.78,2.38,4.45,5.12,6.37,7.15l5.82,5.91c12.57,12.79,25.23,25.69,38,38.68l-19.62,9.85c-23.36-25.99-44.8-49.48-62.25-67.91-7.11-7.38-14.11-14.67-21.77-21.58-2.41-2.1-4.67-4.2-7.6-5.84-.76-.37-1.77-.76-2.61-.83-14.45-2.27-37.37,13.76-49.21,21.73-8.49,5.88-16.48,12.35-24.16,18.52-4.01,2.97-6.24,9.04-5.99,13.67.35,9.43,5.77,18.13,10.48,25.33,9.87,14.37,21.11,26.53,33.21,38.66,1.8,1.77,6.08,6.29,7.84,8.13,40.43,42.33,85.34,88.63,126.36,130.89,41.01,41.94,86.45,88.47,127.83,129.53h.01c-19.64,19.96-38.52,40.63-55.13,63.31-3.59,5.24-7.54,11.11-10.28,16.85-2.85,6.1-4.64,12.48-6.36,18.99-12.01,47.06,5.77,84.64,49.06,106.08,20.93,10.48,44.4,16.17,67.18,19.68,2.23.3,7.11,1.07,9.35,1.36,1.82.25,13.61,1.39,15.59,1.68,13.49,1.14,27.64,1.81,41.33,2.1l-19.81,35.85c-97.6,178.73-195.56,357.64-286.55,539.83-9.33,19.13-18.76,38.33-27.05,58.05-2.04,5.18-4.56,10.79-5.54,16.67-.07.96-.2,1.86.02,2.97.2,1.16.42,1.78.74,2.77,1.86,5.76,4.03,12.27,6.65,18.83-7.33,2.16-14.31,5.21-20.71,9.57-10.58,7.14-17.71,18.86-10.9,31.32,2.09,3.74,4.7,6.53,7.46,9.05.64.52,1.56,1.14,2.26,1.51l.42.2.86.38c.63.28,1.03.38,1.53.55,8.38,2.47,17.2,2.92,25.57,3.67,117.55,5.75,235.22.88,352.76-1.19,241.69-6.24,504.68-16.29,746.99-27.68-.91-.94-1.83-1.88-2.75-2.82-1.54-1.8,13.34,2.32,11.85,2.39-3.03.14-6.06.29-9.1.43,69.25,70.95,138.99,141.42,209.54,211.09,6.75,6.34,13.46,12.86,20.78,18.69.75.58,1.81,1.32,2.65,1.82.57.37,2.12.95,2.39.95,4.17.95,8.05.68,12.08.17,25.24-4.06,58.11-22.24,74.72-41.75,7.68-8.85,13.08-21.55,7.36-32.21,46.52-27.33,385.05-253.66,476.17-313.52-.23-.28-.46-.55-.71-.82.34.11.7.16,1.05.16.26,0,.53-.03.79-.09-.37.25-.75.49-1.13.75.59.72,1.15,1.48,1.64,2.3,1.03,1.62,2.71,3.81,3.93,5.31,11.37,13.28,26.45,22.99,42.27,30.12,9.64,4.69,19.52,7.3,29.61,1.97,22.4-12.42,26.55-51.46,27.77-74.33.57-12.83.35-25.59-1.04-38.38ZM2493.4,1485.53c16.42-6.27,43.72-17.44,60.57-13.68,20.43,6.04,41.97,44.03,47.76,63.75.08.32.14.59.19.85-2.39,4.19-6.08,8.16-9.33,11.98-2,2.26-4.03,4.51-6.09,6.74.48,2.47.92,4.95,1.33,7.42-.53-2.35-1.09-4.69-1.69-7.02-7.57,8.23-15.43,16.28-23.34,24.16-9.97,9.91-20.54,20.48-31.26,29.54-1.18.91-2.23,1.87-3.52,2.47-3.6,1.72-7.4,2.94-11.27,4.1,4.66-4.04,9.28-8.14,13.83-12.33,2.21-2.1,4.67-4.64,6.24-7.59,11.75-20.8,22.36-47.03,19.82-71.42-1.52-13.56-8.68-25.18-20.7-31.56,12.2-.23,23.44,6.69,31.54,18.18.95,1.43,2.05,2.98,2.96,4.42.58.98,2.14,3.67,2.69,4.62.53,1.05,1.87,3.68,2.42,4.78.93,1.91,2,4.6,2.91,6.57,3.09,7.83,5.6,15.88,7.68,24.06.12-.13.25-.26.36-.4-2.26-11.8-5.33-23.56-10.2-34.56-4.02-9.04-9.28-17.69-16.95-24.18-9.67-8.57-23.08-11.16-35.29-7.96-11.73-2.98-24.2-2.45-36.26-.64,1.86-.78,3.73-1.55,5.6-2.3ZM2346.47,1529.58c43.09-1.94,85.61-14.35,127.07-23.95,1.97-.41,3.94-.81,5.9-1.19l-405.06,350.16c-.3,3.98,427.9-346.21,428.78-345.66,2.23-1.93,3.35-4.68,3.26-7.42,4.61.11,9.2.63,13.79,1.73,11.94,3.09,19.62,10.51,21,23.14,2.04,20.68-8.31,45.35-18.76,63.07-19.1,18.86-40.85,35.53-61.52,52.96-121.47,99.45-251.19,201.84-372.74,301.92.42,1.68.76,3.36,1.03,5.02,62-46.61,123.6-93.77,185.1-141.06,32.16-24.71,65.01-50.15,97.72-75.81l111.82,85.44c-131.72,88.76-457.29,308.17-457.89,308.57-.14.1-.26.21-.37.33-36.66-37.49-73.51-74.78-110.49-111.94,28.73-3.38,57.32-7.56,85.83-12.4,22.38-3.9,44.5-7.85,66.54-14.08,5.04-1.53,9.59-3.86,13.57-7.69,8.32-8.47,10.07-19.67,8.17-31.36-4.45,3.36-8.9,6.7-13.36,10.04-.83.63-2.02.46-2.64-.38-.19-.24-.3-.52-.35-.8.03,5.76-1.92,10.82-7.62,13.53-.91.39-1.74.78-2.73,1.08-10.95,3.48-22.15,6.43-33.59,9.14-19.45,4.66-41.82,9.54-61.43,13.75l-58.92,12.61c-28.98-29.08-58.03-58.07-87.15-87,18.15-2.52,36.27-5.23,54.39-7.82,41.37-5.94,83.13-12.33,124.64-16.15,5.16-.45,10.3-.81,15.39-1.04,7.13-.23,14.08-.68,20.78.72.22.04.25.09.36.12l.12.03s-.04-.03-.06-.06l.12.08h.02s.43.29.43.29c4.58,3.16,8.39,7.32,12.24,11.89,6.18,7.54,11.69,15.94,15.96,24.67,2.86,6.1,6.81,15.44,7.04,23.55.07-.45.3-.88.68-1.19,4.87-4.02,9.75-8.05,14.65-12.08-4.27-17.46-15.63-35.31-24.59-46.28-4.55-5.49-9.8-11.18-16.07-15.46-.92-.58-1.98-1.27-2.99-1.68-2.54-1.15-5.75-1.78-8.28-2.08-12.68-1.34-24.99-.09-37.42,1.02-44.5,5-88.39,12.94-131.96,22.63-55.09-8.27-80.3-19.65-90.96-26.29-111.95-110.81-224.63-220.89-336.74-331.53l-233.03-228.06c14-2.22,27.94-4.84,41.62-7.99,2.78-.64,5.52-1.31,8.29-2.04,167.51,170.55,334.18,340.45,485.78,495.58,47.04,29.9,102.51,16.89,146.22-12.58,29.36-21.61,58.25-43.84,86.96-66.32,5.61,12.86,11.44,25.63,17.43,38.33,1.85,3.75,4.46,9.38,6.38,12.98,13.19,13.73,26.19,26.65,41.49,38.02,7.86,5.74,15.95,10.89,25.38,13.93,16.45,5.48,29.69-.43,42.99-9.73,4-2.72,7.81-5.35,11.68-7.87.61-.44,1.54-1.17,2.11-1.65,3.01-2.89,5.1-6.66,6.63-10.47,5.41-14.2,6.36-29.46,7.27-44.25.86-18.6.36-37.15-.75-55.7-2.17-31.27-5.83-62.43-11.7-93.21,29.99-24.94,59.48-50.46,87.8-77.28,19.58,17.79,46,17.73,70.87,7.21,3.96-1.6,7.83-3.4,11.61-5.38,17.35,1.88,34.84,2.36,52.26,1.39ZM1814.89,1914.83c-7.88-7.83-15.76-15.64-23.65-23.46,12.86,5.02,31.32,10.47,57.61,15.23-11.34,2.64-22.66,5.39-33.96,8.23ZM1258.2,1240.16c-14.74-18.56-39.89-19.49-62.04-16.57-118.75-123.94-236.91-247.4-349.59-365.3l35.03-59.24c15.4,16.32,28.98,30.72,37.59,40.54,24.1,25.82,49.23,52.79,75.18,80.67-4.06,6.82-7.66,13.89-11.15,21.05-.69,1.5-2.53,5.3-3.09,6.69l-.22.49c.3-1-1.42,3.5-.79,5.65,4.37,9.48,1.41,2.86,2.47,5.07l.34.39.67.78,1.35,1.55c13.56,15.4,27.21,30.51,42.06,44.82.95.87,1.89,1.76,2.85,2.65-1.19.8-2.31,1.73-3.33,2.79-8.51,8.48-8.15,22.9.76,30.93.33.34,3.61,3.46,3.93,3.79,16.12,15.45,37.66,36.21,53.48,51.55,7.58,8.49,21.15,9.36,29.37,1.27,8.55-8.23,7.88-21.95-.82-29.81-15.71-16.46-31.37-32.98-47.35-49.18,3.71-3.15,6.75-7.11,10.3-9.89.65-.56,1.32-1.06,2.01-1.49,204.02,219.62,440.72,475.47,620.5,666.21,10.12,10.01,20.06,20.51,31.29,29.64.88.68,2.81,2.13,3.73,2.71,10.51,7.25,20.96,14.65,32.1,21.1,17.98,10.64,38.44,18.18,59.55,18.6,35.68.78,68.66-16.77,96.91-36.77,6.68-4.81,13.83-10.18,20.33-15.31,5.47-4.35,10.94-8.7,16.41-13.07,4.63,11.74,9.45,23.39,14.46,34.97-27.54,21.25-55.27,42.29-83.2,63.05-24,17.33-52.43,29.75-82.19,31.6-16.01.86-32.25-1.76-46.94-8.26-1.22-.56-2.48-1.01-3.66-1.65l-3.57-1.82c-1.24-.59-2.27-1.24-3.36-1.86l-3.26-1.87c-151.08-157.04-316.04-328.82-481.65-501.57,4.6-18.42,5.16-39.13-6.46-54.9ZM1126.14,1237.39c1.37,1.37,1.37,3.58,0,4.95-.68.68-1.58,1.02-2.47,1.02s-1.79-.34-2.48-1.02l-7.7-7.7c-12.71,1.16-25.44,2.09-38.18,2.81-23.22,1.26-46.55,2-69.82,1.58l-95.29-88.69c10.05-19.26,24.99-36.18,40.65-51.09,4.69-4.41,9.53-8.65,14.5-12.76l148.14,148.15c3.01-.28,6.02-.56,9.03-.87l-151.71-151.71c12.15-9.64,24.99-18.53,38.19-26.93,55.64,56.62,111.99,113.96,168.49,171.48-18.24,2.95-36.58,5.31-54.97,7.16l3.62,3.62ZM994.93,1238.76c-13.75-.45-27.48-1.35-41.15-2.8-11.84-1.4-23.53-3.14-34.77-7.02-18.84-6.77-23.11-29.79-19.74-47.66,1.58-8.5,4.24-16.61,7.73-24.36l87.93,81.84ZM841.55,853.03c-2.73-2.85-5.46-5.71-8.18-8.56l36.15-58.23c2.46,2.62,4.9,5.2,7.3,7.75-.39.27-.73.63-.99,1.07l-34.28,57.97ZM997.8,956s.02-.11.06-.23l.09-.23c-.07.24-.13.4-.15.46ZM1034.24,1014.29c3.9,3.43,8.03,6.65,12.7,9.14,1.37.66,2.67,1.26,4.24,1.6,2.54.66,5.24.35,7.7-.57,7.25,7.16,14.56,14.27,21.91,21.31,8.37,8.1,16.83,16.12,25.26,24.16,1.69,1.68,4.55,4.15,5.97,5.97,5.07,6.21,4.47,15.92-1.15,21.63-5.6,5.97-15.61,6.84-22.01,1.65-1.87-1.44-4.37-4.33-6.06-5.99-8.09-8.39-16.24-16.72-24.29-25.14l-24.22-25.21c-.51-.51-3.36-3.5-3.79-3.93-2.39-2.39-4.1-5.46-4.54-8.82-1.08-7.13,2.8-13.08,8.28-15.8ZM2188.12,1487.12c3.76,11.17,8.86,21.97,16.26,31.27,1.39,1.79,2.83,3.46,4.32,5.01-27.61,25.92-56.61,50.38-85.91,74.44-2.56-12.76-5.51-25.46-8.9-38.06-.88-3.15-1.77-6.28-2.7-9.4,26.35-25.41,51.68-51.84,75.56-79.71-.47,5.46-.35,11.14,1.37,16.45ZM2123.42,1752.07c-.24,8.97-.82,17.93-2.14,26.57-.89,5.33-1.86,10.38-3.85,15.16-.6,1.46-1.51,3.22-2.5,4.4l-.32.37-.15.2c-.21.13-.4.32-.58.49-.04.04-.22.16-.32.23-14.4,9.64-26.95,23.07-44.98,17.4-22.17-6.66-46.57-30.34-63.81-46.12v.02s.07.18.07.18c-.05-.09-.17-.29-.23-.35.05.05.11.1.16.15l-.14-.38-.3-.8-.59-1.61c-6.36-17.23-12.79-34.68-19.11-52.25-.72-2-1.44-4.01-2.16-6.02-4.35-12.17-8.63-24.38-12.77-36.61-.62-1.83-1.23-3.65-1.84-5.48-5.78-17.26-11.26-34.53-16.26-51.73-4.52-16.12-19.25-68.19-10.66-81.16,21.81-29.23,70.67-60.39,107.84-47.32,1.27.54,2.78,1.07,4.11,1.65.82.46,3.13,1.52,3.96,1.99l2.53,1.56c3.4,1.97,6.51,4.78,9.47,7.37,4.3,4.3,7.5,9.16,10.54,14.65,7.55,14.13,13.1,29.39,17.65,44.96.33,1.11.65,2.22.96,3.33,2.59,9.12,4.87,18.32,7.02,27.44,1.39,6.24,2.71,12.5,3.97,18.77.39,1.97.78,3.93,1.16,5.9,8.71,45.14,13.81,91.15,13.27,137.04ZM2305.76,1251.84s.02-.03.03-.03c-.02.04-.07.11-.14.2.04-.06.08-.12.11-.17ZM2235.68,1370.71c.98-1.91,1.98-3.81,2.97-5.71.63-1.19,1.26-2.39,1.89-3.58l.24-.45c19.18-36.19,40.31-71.4,62.68-105.66l-.08.02h-.02s-.03.04-.04.05c-.02-.04-.04-.02.04-.05.03-.09,0-.31-.13-.62.65-.35,1.59-1.54,2.14-2.29-.45.66-1,1.52-1.35,2.02-.19.29-.38.58-.56.87l.09-.03c6.16-1.81,12.69-2.62,19.1-2.88,33.99-.58,69.61,10.05,99.31,26.44,14.43,8.4,29.14,18.47,36.93,33.5,13.95,25.91-39.33,91.34-56.81,111.53-29.56,33.56-61.59,65.82-98.77,90.83-1.84,1.18-3.64,2.32-5.5,3.41h-.03c-1.94,1.13-3.89,2.22-5.9,3.23-3.56,1.85-7.21,3.58-10.96,5.13h0c-8.37,3.45-17.17,5.93-26.15,6.61-15.27,1.35-27.54-3.71-37.03-12.43-1.03-.94-2.03-1.93-3-2.96-8.8-9.39-14.88-22.07-18.45-35.35-1.4-9.15.95-18.66,3.39-27.67h.01c.09-.35.18-.68.27-1.02.95-3.25,1.97-6.49,3.05-9.7,0,0,0,0,0,0,5.99-17.89,13.85-35.18,22.06-52.19,3.46-7.05,7-14.06,10.61-21.04ZM1914.92,861.21c26.73-4.24,63.57,2.87,86.97,16.53,12.4,7.26,23.4,18.75,23.31,33.74-.17,9.3-3.45,18.99-9.4,26.33,0,.01-.02.02-.03.04-.95,1.17-1.97,2.27-3.05,3.31,0,0-.02.02-.04.04-2.53,2.43-5.43,4.46-8.66,5.96-26.41,12.1-63.84-4.39-85.78-20.29-4.56-3.36-8.91-6.95-12.56-11.15-1.74-2.01-2.9-3.71-3.68-5.98-5.99-15.56-7.28-44.12,12.92-48.53ZM1843.78,958.28c1.23-1.98,2.44-3.96,3.65-5.95,13.01-21.27,25.63-42.77,37.57-64.65.23,5.93,1.29,11.88,3.02,17.4,1.96,6.44,4.8,13.42,9.76,17.99,21.61,20.43,68.76,41.41,100.68,33.58-23.42,25.44-47.18,51.26-71.04,77.06h0c-1.11,1.21-2.22,2.4-3.32,3.59-36.14,39.06-72.5,78.05-108.28,115.59-9-1.77-19.88-2.13-28.37-4.26-7.49-1.86-13.54-6.17-18.94-11.65-7.16-7.33-8.79-25.88-13.73-39.27h0c.39-.63.8-1.26,1.19-1.9,29.02-45.92,59.29-91.22,87.81-137.53ZM1834.02,948.73c-20.48,34.72-39.98,70.08-59.42,105.36-5.15,9.2-12.66,22.65-17.84,31.62l-4.07,7.12c-3.54-7.04-8.68-11.5-17.28-9.89-8.62,2.02-13.56,9.03-20.49,13.61-21.27,14.17-50.32,14.79-74.94,11.42,25.52,7.99,55.76,9.95,79.97-3.21,3.11-1.6,7.08-4.58,9.9-6.69,2.6-1.78,5.86-4.1,8.82-3.83.52.23.63.42,1.09.94,2.02,2.92,2.83,6.84,3.64,10.48,3.13,14.15,3.23,30.9,13.19,42.7,16.49,19.16,32.11,19.02,55.05,21.83-3.36,7.15-6.79,14.99-7.06,23.13-.28,4.23.53,8.63,1.19,12.69,1.03,7.26,1.87,14.98,3.29,22.69,3.9,23.56,14.9,46.25,36.51,58.18-2.68-2.75-5.17-5.6-7.48-8.55-14.01-17.86-16.75-40.26-17.12-62.29-.1-3.76-.21-7.57-.44-11.5-.37-4.88-.86-9.56.68-14.24,1.51-5.03,4.08-9.16,6.55-14.02,1.35-2.62,2.63-6,2.67-9.12.07-5.62-3.08-9.65-7.53-12,10.16-11.2,20.92-22.93,30.81-33.71,23.95-25.93,49.11-52.97,74.48-80.12,80.74,79.88,160.82,160.4,240.12,241.64,14.11,14.6,35.36,36.14,48.82,50.74,2.7,2.88,5.58,6.12,7.76,9.41.98,1.41,1.95,2.82,2.91,4.25.72,1.08,1.44,2.17,2.15,3.27-.26.55-.52,1.1-.78,1.65-15.1,32.02-29.61,64.45-38.92,98.76-1.08,4.31-2.05,8.68-2.73,13.17-15.84,19.63-32.75,37.74-46.04,51.71-10.24,10.58-20.68,20.97-31.29,31.17-4.25-13.86-9.24-27.43-16.18-40.48-3.51-6.56-7.97-13.32-13.41-18.74-10.19-9.94-23.24-17.11-37.42-19.57-3.68-.62-7.8-1.01-11.56-1.15-1.26.02-4.52.04-5.75.07-1.24.1-4.42.33-5.69.45-3.63.46-7.56,1.13-11.13,1.92-31.71,7.71-62.64,28.98-82.28,54.85-2.76,3.73-4.34,8.26-5.02,12.22-3.77,25.59,6.98,59.55,14.21,83.91,5.97,18.82,12.57,37.4,19.68,55.77-13,9.08-26.31,17.71-40.01,25.67-29.36,16.47-62.25,30.94-96.44,27.85-27.56-2.62-50.83-18.48-73.36-33.73l-3.5-2.35-1.75-1.18c-1.45-1.09-2.72-1.98-4.22-3.32l-1.5-1.26-1.52-1.35c-151.37-143.53-301.03-304.81-444.52-456.92-65.01-69.3-135.94-145.52-207.46-222.43,5.46-1.89,11.56-1.29,17.22.49,9.44,2.83,18.24,7.98,26.56,13.63,39.9,27.56,73.57,63.65,114.86,89.73,7.8,4.37,16.12,9.29,25.98,9.01,9.31-.96,16.97-5.02,24.97-8.66,4.97-2.42,9.8-4.99,14.59-7.62,47.25-26.87,91.91-57.51,134.62-91.03,4.36-3.61,8.52-6.96,12.54-11.15,1.07-1.2,2.24-2.4,2.99-3.99.18-.44.38-.79.54-1.7.22-.9-.09-2.56-.11-2.36-1.21-4.08-3.28-7.82-5.03-11.56-9.53-19.31-19.67-38.29-28.24-57.95-2.09-4.86-4.12-9.8-5.54-14.61-.49-1.71-.9-3.26-1.02-4.93-.02-.25,0-.47,0-.56l.1-.2c4.24-7.45,13.34-12.53,21.79-10.48,4.51,1.03,8.48,4.03,11.77,7.24,6.16,5.52,12.65,10.54,19.19,15.54,17.45,12.86,62.07,45.96,83.06,43.42,3.01-.45,6.04-1.94,8.65-3.21,10.08-5.15,19.09-10.96,28.5-16.94,22.85-14.85,45.04-30.63,66.18-47.86,12.8-10.63,25.26-21.54,36.25-34.16,6.6-8.03,16.77-19.97,14.31-31.83-.14-.8-.26-1.08-.75-1.43-1.23-.7-2.77-.84-4.16-1.16-.6-.17-.96-.41-1.09-.75-.84-2.08-1.76-4.08-2.72-6.02,45.71,43.98,91.27,88.14,136.64,132.5ZM1670.04,770.22c-12.55-19.86-25.53-39.72-37.27-59.14-1.47-2.42-2.94-4.85-4.39-7.28,3.73-1.32,7.61-2.21,11.42-3.28,17.35-4.57,35.32-8.1,52.96-10.51,9.24-1.19,18.34-2.39,27.46-1.85,1.32.13,2.62.31,3.87.58.16.17.78.76,1.04,1.16,4.7,7.56,6.36,16.81,8.37,25.72,5.68,29.22,8.56,59.43,10.92,89.2.85,12.06,1.55,24.13,1.96,36.21l.27,8.17c-25.76-26.47-51.34-52.83-76.61-78.98ZM1694.91,620.9c7.13-2.7,15.03-5.47,22.48-6.9,30.01-6.03,50.71,4.61,73.39,22.6,3.34,5.64,4.29,13.19,5.53,20.02.79,4.85,1.4,9.79,1.94,14.76,2.2,19.98,3.27,40.24,4.26,60.38,2.55,55.67,3.38,111.84,2.07,167.61-.1,1.78,0,5.94-.32,8.87-.03.2-.05.39-.08.57-3.54-3.48-7.03-7.01-10.55-10.5-8.52-8.47-31.84-31.79-41.15-41.04-.14-.78-.21-1.55-.25-2.33-.08-1.61,0-3.22.05-4.84l.24-9.11.34-18.21c.38-36.74,1.29-73.4-4.34-109.92-2.3-12.28-6.05-35.54-20.19-39.42-12.71-2.71-25.99.29-38.21,3.23-17.99,4.74-35,11.27-52.29,17.7-3.54,1.23-8.13,3.27-12.38,4.5-3.02-5.14-5.94-10.3-8.64-15.47-1.89-3.79-3.89-7.46-4.93-11.44-.18-2.79,2.22-6.65,5.63-10.47,1.6-1.81,3.53-3.73,5.53-5.77,23.43-12.64,47.23-24.96,71.87-34.82ZM1535,631.58c7.16-3.88,14.32-7.77,21.44-11.69,12.01-6.42,23.99-13.02,36.13-19.04-.25-.11-.45-.16-.5-.18.03,0,.12.01.28.02.23-.02.38-.03.64-.07.13-.03.29-.09.38-.14-.01.01-.02.02-.04.03l-.65.29s-.07.04-.11.05c.08.03.16.07.24.11,3.33,1.68,7.22,5.53,10.07,8.58,6.68,7.27,13.07,15.71,17.89,24.36.19.34.12.29.17.37.11.13.08.23.14.36-.13,1.98-1.56,3.77-3.28,6.05-7.03,8.74-19.22,18.52-18.7,31.55.12,1.77.6,3.62,1.25,5.24,6.08,14.15,15.37,26.6,23.64,39.26,4.72,6.94,9.47,13.83,14.23,20.7,10.58,15.3,21.18,30.53,31.38,46.08,3.33,5.19,6.75,10.41,10.06,15.7,5.18,8.31,10.08,16.79,13.93,25.62.11.29,0,.68-.36,1.14-.74.73-1.46,1.46-2.26,2.12-.29.22-.49.4-.61.55-.31.3-.19.66-.25.52-1.51,5.83-6.59,11.76-11.18,16.99-6.79,7.59-14.51,14.79-22.34,21.85-23.82,20.99-49.29,40.9-75.47,59.1-9.81,6.6-19.79,13.74-30.39,18.69l-.43.16c-.09,0-.12.04-.23.06-.13,0-.21.05-.38.05-6.43.02-13.41-3.26-19.78-5.99-9.54-4.32-18.85-9.49-27.94-14.82-15.9-9.52-31.71-19.65-46.06-31.42-4.56-4.1-9.71-7.53-15.84-8.83-12.45-2.79-25.58,4.53-31.37,15.42-3.18,6.33,3.84,20.92,6.2,27.14,9.52,22.89,21.83,44.42,31.66,67.03.15-.15.29-.31.43-.47.14-.17.27-.35.3-.4h0s0,0,0,.02c-.06.14-.11.18-.22.75-.09.34-.03.98.01,1.3-.01-.03-.03-.07-.04-.12-.16-.36-.31-.72-.48-1.08-3.6,3.96-8.14,7.49-12.35,10.93-25.22,19.88-51.99,37.99-78.94,55.48-22.59,14.39-45.26,28.58-69.3,40.1-4.75,2.2-9.57,4.29-14.26,5.78-2.3.73-4.7,1.3-6.39,1.38-6.5-.25-12.99-4.04-18.94-7.62-35.86-23.55-65.6-54.9-99.5-81.46-8.8-6.93-17.63-13.55-27.53-19.15-13.42-7.36-30.16-13.44-45.32-7.21-1.47.58-2.89,1.27-4.26,2.05-1.29.74-2.54,1.56-3.74,2.45-2.82,2.03-5.38,4.37-7.68,6.7-1,.99-1.91,1.89-2.76,2.7-.55.52-1.06.97-1.49,1.3.37.23.74.44,1.1.62.04.03-.07-.02-.11-.02-.06,0-.07,0-.27-.04-.38-.05-1.05-.05-1.41.04-.12.02-.2.05-.26.07.08-.04.2-.11.35-.22.18-.12.38-.27.6-.45-1.55-.92-3.21-2.17-4.61-3.37-15.7-13.62-29.54-30.08-43.15-45.96-1.76-2.08-4.27-5.1-6.53-7.84,2.28-5.62,4.74-11.26,7.44-16.75.69-1.4,1.4-2.79,2.12-4.17,3-5.7,6.32-11.19,10.07-16.31l.54-.72.27-.37c.1-.13.06-.06.1-.1,0-.02.02-.04.03-.06,0-.02.06-.07.14-.14,2.27-2.12,4.88-3.76,7.65-5.62,17.97-11.33,37-21.24,55.89-31.06,57.4-29.11,115.57-57.65,175.33-81.64,2.78-1.03,5.45-2.02,8.15-2.75,3-.7,6.59-.95,9.71-.86,14.26.24,25.46,10.8,38.03,16.55,20.21,7.2,39.97-17.45,54.14-28.31,8-5.74,5.58-16.74,4.27-24.86-.84-5.24-1.38-10.28-.95-15.11.31-3.59,1.2-7,2.71-10.23.21-.34.4-.62.66-.95,3.56-4.21,8.39-7.65,12.89-11.01,40.12-27.55,83.03-50.85,125.93-73.97,6.69-3.61,13.39-7.22,20.07-10.83ZM772.08,640.64c6.65-3.48,13.47-6.66,20.31-9.52,6.51-3.49,71-22.5,77.74-25.23,117.51-36.64,262.13-83.63,379.52-118.38,14.86-4.35,30.74-9.14,45.16-12.29h-.07c-.48.04-1.34-.04-1.21-.07.41.03.81.05,1.21.07.06-.01.11-.01.15-.02-.03,0-.05,0-.08.02,2.49.1,4.93-.02,7.43-.4l2.83-.58c3.41-.84,4.97-1.21,6.19-1.33,1.76-.09,3.61.22,5.38.67,4.82,1.52,9.52,3.76,13.96,6.3,5.64,3.3,11.02,6.62,16.41,10.45,5.71,3.98,10.52,7.5,16.25,11.84l1.62,1.2,1.48,1.22c14.33,11.88,28.65,25.31,42.3,37.99,31.94,29.86,63.81,59.79,95.63,89.8-3.75,2.21-7.51,4.43-11.26,6.65-37.12,22.46-74.11,44.59-109.25,70.34-4.92,3.84-9.85,7.52-13.99,12.41-1.75,2.1-2.72,4.68-3.57,7.24-2.78,8.3-1.97,17.77-.62,25.93.62,4.52,1.98,10.15.89,14.2-.53,2-2.18,2.85-3.67,4.03-10.72,8.15-32.57,33.18-46.51,24.38-15.33-8.68-26.39-18.05-45.34-16.35-2.18.24-4.68.46-6.83,1.13-23.44,7.52-45.6,17.71-68.18,27.24-54.53,23.79-108.91,47.95-161.88,75.13-7.41,3.99-14.82,7.85-21.91,12.77-1.37,1.04-3.28,2.34-4.93,4.32-.27.3-.77.97-1.06,1.3-3.45,4.26-6.56,8.7-9.43,13.26-42.61-45.8-84.66-90.96-125.02-134.14-1.28-1.37-2.57-2.75-3.85-4.12h0c-12.56-13.45-24.96-26.7-37.16-39.71-15.21-16.28-29.98-33.11-42.42-51.59-6.89-10.22-20.77-32.54-16.21-46.16ZM726.47,732.55c-10.67-13.64-14.29-33.56-6.26-49.24l.74-1.38.81-1.35c7.41-11.15,17.65-19.46,29.11-27.36,6.13-4.14,12.61-8,19.27-11.55-.84,2.59-1.14,5.38-1.01,8.06.39,7.21,2.81,14.05,5.74,20.58,3.04,6.44,6.47,12.53,10.43,18.47,13.6,21.38,47.71,58.59,79.26,92.19l-36.18,58.28c-34.57-36.17-68.58-71.79-101.91-106.7ZM632.41,723.8c3.37-1.57,6.61-2.77,10.21-2.43,1.09.6,4.13,2.88,5.84,4.45,29.61,27.14,56.69,57.41,84.08,86.83.51.56,1.03,1.12,1.54,1.69.67.72,1.33,1.45,1.98,2.17,66.32,72.55,132.81,148.01,196.37,222.79-5.72,5.22-11.4,10.49-17.05,15.81-62.62-74.98-128.43-152.63-192.87-225.82-18.34-20.68-37.07-41.41-57.01-60.68-9.84-9.14-19.57-19.08-32.26-24.3-7.05-3.02-14.94-4.6-22.82-4.6,6.78-6.07,13.9-11.63,21.99-15.91ZM793.46,1004.73c-56.03-60.85-116.67-126.21-173.35-186.08-11.02-11.15-22.12-23.38-30.76-36.19-3.28-5.1-6.78-10.62-7.39-15.95v-.24c-.08.07-.16.14-.25.21.1-.12.2-.27.23-.35.01-.03.02-.05.03-.06,0,.02,0,.08,0,.2,2-1.67,3.94-3.4,5.87-5.15,19.21-4.79,34.63-7.06,52.85,7.43,10.44,8.39,20.78,17.68,30.6,26.77,86.72,81.12,165.97,170.49,244.04,259.85-5.57,5.23-11.1,10.5-16.6,15.81-7.94,7.77-15.89,15.55-23.73,23.44-26.95-30.11-54.24-59.89-81.53-89.69ZM965.18,1313.1c-45.99-2.42-123.47-11.65-146.97-56.49-3.77-7.17-6.1-15.19-6.9-23.37-.77-7.45-.29-15.01.82-22.44,1.45-8.33,3.42-16.75,6.71-24.57,2.31-4.96,5.63-10.24,8.67-14.83,41.22-56.79,92.27-106.77,140.79-157.67-1.1-1.12-2.2-2.24-3.3-3.35-9.24,7.96-18.38,16.04-27.42,24.24-48.76-54.58-128.76-146.49-194.81-220.12l19.92-10c65.39,66.56,133.19,135.55,202.31,205.88,2.25-1.95,4.51-3.88,6.77-5.81,1.9-1.4,4.25.87,2.6,2.78-2.02,2.13-4.04,4.25-6.07,6.38,12.67,12.9,25.39,25.84,38.15,38.82-15.7,7.9-30.9,16.93-45.2,27.17-37.72,27.16-79.7,71.48-75.55,121.56,1.55,17.51,12.45,35.11,30.06,40.55,2.4.87,5.43,1.7,7.87,2.38,12.83,3.23,25.9,4.87,38.97,6.1,75.05,5.55,150.69-.26,224.52-13.9,2.11-.39,4.22-.79,6.33-1.19,3.94-.73,8.04-1.35,12.18-1.75,23.08-2.26,47.41,2.06,52.61,29.01,1.63,8.39,1.48,17.35.16,26.05-.54,3.61-1.29,7.18-2.21,10.64-2.04.43-4.12.83-6.21,1.22h-.01c-1.25.23-2.51.46-3.76.68-25.87,4.54-52.79,7.34-78.97,9.57-66.86,5.14-135.09,5.46-202.06,2.46ZM1160,1411.64c5.26,19.13,11.56,38.29,19.17,56.65,9.91,24.1,22.09,47.56,35.71,69.77,35.56,57.69,81.59,108.27,133.58,151.57-180.53,78.27-377.34,164.78-555.83,243.96-4.47,1.99-14.89,6.6-22.76,10.08,29.41-51.57,61.6-108.18,86.18-151.24,75.58-133.15,173.2-305.03,248.45-438.98l55.5,58.19ZM1380.99,1715.23c4.54,3.38,9.12,6.71,13.73,9.98,42.39,30.06,87.77,56.06,134.99,77.28,1.28.57,2.75.32,3.77-.59,41.61,43.4,83.26,86.76,125.04,130l-5.28.42c-243.7,16.68-608.02,36.89-869.31,52.91,190.67-85.25,404.54-183.42,597.06-270ZM762.4,1980.53l-5.31,2.32c-.88.4-1.8.71-2.49,1.52-.7.73-1.18,1.7-1.41,2.76-2.83.18-5.64.36-8.43.53,4.76-8.34,9.72-17.01,14.8-25.91,2.98.05,5.43-1.09,7.87-2.25,41.63-18.72,110.97-49.93,153.1-68.9,135-60.94,296.18-134.18,432.78-196.97,8.08,6.63,16.3,13.07,24.65,19.33-199.5,87.14-419.39,181.24-615.56,267.57ZM1406.23,1709.67c-1.56-1.19-3.15-2.41-4.75-3.66-.91-.7-1.83-1.41-2.75-2.13-8.13-6.36-16.6-13.21-24.51-19.87-1.46-1.23-2.9-2.45-4.32-3.66-1.09-.93-2.16-1.85-3.21-2.76-60.02-51.12-113.91-110.31-154.79-177.9-14.48-23.54-26.76-48.11-37.88-73.35l134.34,140.87c31.67,32.88,63.29,65.81,94.88,98.77,1.03,1.07,2.05,2.13,3.06,3.2,7.08,7.37,14.14,14.74,21.2,22.11.7.73,1.4,1.46,2.1,2.19,30.38,31.71,60.74,63.42,91.13,95.13-39.42-24.83-77.87-50.55-114.5-78.94ZM1049.56,1433.9c-106.06,182.69-225.4,390.52-330.45,573.24-6.62,10.33-18.65,28.27-31.58,26.31.71-.59,1.38-1.2,2.01-1.81,9.15-9.55,16.45-20.43,23.8-31.19,64.52-100.37,118.11-207.12,173.32-312.73,60.09-117,119.32-235.34,177.47-353.37.88-1.77,1.68-3.6,2.68-5.29,3.04-.09,6.04-.19,8.99-.3,1.65-.07,3.3-.14,4.95-.22l18.67,19.58-49.86,85.78ZM654.45,1981.01c.13-.58.24-1.1.44-1.75,8.2-23.53,20.07-46.02,30.79-68.62,94.7-190.22,203.51-391.85,303.18-581.06h.37c23.55.46,50.4.27,74.87-.44-.2.43-.42.87-.65,1.31l-1.43,2.85c-105.55,208.34-211.31,417.33-330.26,618.37-8.84,14.46-17.86,28.82-27.35,42.75-7.08,10.22-14.22,20.55-22.76,29.42l-3.8,4.01-.08.08c-2.16-2.06-4.15-4.54-5.98-7.2-6.63-9.73-11.39-21.56-15.21-32.95-.75-2.18-1.44-4.48-2.14-6.7.01-.02.01-.05.01-.07ZM654.33,1980.71c-.04-.13-.08-.25-.12-.37,0-.02-.02-.04,0-.06.03.06.1.29.13.43ZM1452.88,2034.59c-246.88,7.36-493.96,17.55-740.97,15.66-24.27-.7-49.03-.73-72.99-4.22-1.94-.37-3.68-.69-5.39-1.33-.08-.04-.16-.07-.24-.1-5.11-4.72-7.8-9.58-3.01-15.63,5.8-7.11,14.2-12.07,22.4-16.59,5.85,12.67,13.66,24.55,24.54,30.65,23.81,12.45,43.68-14.23,54.22-32.13,3.14-5.47,6.4-11.16,9.77-17.04l13.22-.77,13.73-.79,433.88-25.13c127.37-7.86,326.28-17.79,451.79-26.99l7.28-.56c1.28-.19,2.94-.18,4.52-.36,27.49,28.45,55.04,56.84,82.66,85.16-73.96,2.68-222.2,7.77-295.41,10.17ZM1992.96,2255.6s0,0-.02,0h-.02c-.09-.01-.17-.03-.19-.05h.07s.03,0,.06.01c-.21-.15-.39-.25-.67-.45l-.91-.67c-6.99-5.59-13.46-11.86-20.06-18.05-176.92-175.51-354.88-359.76-531.49-543.9-2.37-2.47-4.74-4.94-7.11-7.41-114.98-119.91-229.38-239.71-342.54-356.97,23.51-1.18,47.26-2.91,70.65-5.47h.01c111.86,108.67,234.99,230.37,346.02,340.49,161.56,160.99,328.72,329.91,487.32,493.96,3.64,3.97,7.29,7.89,10.7,12.03.11.14.28.32.35.43l.24.34.5.67c.09.13.16.17.27.37l.31.53c13.1,21.76,20.44,47.63,7.94,71.41-1.96,4.01-4.38,7.87-7.04,11.72-4.85,1.18-9.74,1.75-14.39,1.02ZM2070.79,2217.04c-13.19,15.07-31.54,25.68-50,33.19-2.21.82-4.49,1.65-6.82,2.43,2.15-1.86,4.17-3.87,6.02-6.02,21.45-24.81,13.72-56.61-1.8-82.15-.45-.87-1.58-2.35-2.29-3.35-.17-.23-.3-.37-.45-.55l-.87-1.06c-12.29-14.38-25.63-27.86-38.62-41.5-264.88-267.4-540.43-529.91-806.43-796.4,1.65-.19,3.3-.39,4.95-.6,7.64-.93,15.32-1.95,23-3.09,272.11,268.55,562.6,551.62,829.73,822.86,15.67,16.25,31.57,32.35,46.42,49.31l1.56,1.92.77.96c5.89,7.65.34,17.58-5.17,24.05ZM2563.66,1870.1l-1.08-.82c-.43-.14-.88-.17-1.33-.12h0s-2.86,1.93-2.86,1.93h0l-2.63,1.77-471.89,315.78c-.49-.73-1.05-1.45-1.66-2.15-6.14-7.49-12.97-14.63-19.55-21.65-11.46-11.8-22.94-23.58-34.44-35.34l466.02-303.65,6.22-4.06,41.94-27.33,13.33,3.58,22,60.11-15.83,10.59.7.54c.96.26,1.83.98,2.28,2.23-.03.02-.06.05-.08.08-.22-.57-.6-1.09-1.12-1.49ZM2656.35,1829.09c-2.21,19.43-6.72,65.16-24.19,75.5-3.78,2.21-8.75,2.03-13.01.71-3.87-1.24-7.84-2.26-11.65-3.68-15.21-5.08-30.86-11.98-41.1-24.77-.53-.72-1.01-1.51-1.33-2.36-.24.15-.48.31-.72.47.24-.32.42-.68.53-1.05.05.2.11.39.19.58,11.73-7.7,18.49-12.04,18.81-12.04,1.32-.88,1.92-2.57,1.35-4.12l-23.55-64.35c-.22-.62-.64-1.18-1.24-1.58l-.59-.4-15.97-10.71c-1.66-1.11-3.9-1.18-5.67.01-.13.09-18.51,12.47-48.23,32.5l-112.26-85.78c20.26-15.92,40.44-31.91,60.35-47.84,15.15,10.78,57.04,40.59,57.05,40.6,20.75,14.83,41.51,29.69,61.9,45,10.14,7.69,20.31,15.36,29.99,23.47,5.85,5.03,11.85,9.91,16.45,15.81,8.94,15.11,12.39,50.08,12.13,67.93-.08,3.15-.28,6.3-.79,9.39-.46,2.21-.87,4.71-2.56,6.3-.57.48-1.37.69-2.16.49,5.63,1.95,7.79-11.96,8.44-15.92,2.92-18.83,2.1-62.96-11.59-77.05-13.54-14.24-28.94-25.8-44.31-37.81-38.44-29.2-78.07-56.74-118.55-83.02,8.25-6.61,16.44-13.2,24.57-19.78l189.63,150.16c-.52,7.75-1.14,15.6-1.92,23.34Z"/>
    <path class="cls-1" d="M2015.77,937.85c-.95,1.17-1.97,2.27-3.05,3.31,1.02-1.11,2.03-2.21,3.05-3.31Z"/>
    <path class="cls-1" d="M2329.05,819.92c-5.29-32.55-17.94-62.54-33.67-91.15-10.14-18.91-22.3-36.85-35.51-53.77-18.2-23.3-38.45-45-60.12-65.12-25.59-23.28-55.67-48.55-89.7-57.85-37.11-9.76-70.91-26.47-103.3,5.8-15.35,15.96-26.96,36.07-30.13,58.27-2.56,18.71,1.08,34.44,8.44,51.31,4.12,10.08,7.61,21.1,13.2,30.67,5.45,9.65,11.65,18.57,17.91,27.57,9.03,12.69,19,26.7,28.2,39.13,9.27,12.57,18.11,25.63,26.28,38.92,4.32,6.92,8.25,14.18,13.26,21.01,6.29,8.98,15.22,14.16,25.8,16.4,11.32,2.47,22.07,3.31,33.3,4.32,10.26.91,20.1.32,29.87,2.87,14.46,4.12,29.12,10.85,43.15,16.66,14.69,6.2,30.1,13.91,45.45,18.55,20.79,6.43,38.4,3.16,53.26-13.37,13.73-14.56,17.43-30.95,14.31-50.22ZM2309.9,846.97c-2.29,3.85-5.06,7.5-8.26,10.66-10.45,10.81-20.49,11.58-34.25,6.91-14.77-5.27-29.89-12.87-44.9-19.64-4.3-1.95-8.6-3.83-12.88-5.56-1.8-.75-3.6-1.5-5.4-2.24-9.86-4.08-19.73-8.04-30.46-10.37-12.34-2.3-24.73-1.73-36.94-3.09-7.05-.75-15.9-1.48-22.41-3-3.86-.91-7.19-1.9-10.02-4.25-2.97-2.53-5.49-6.45-7.83-10.09-5.05-8.17-12.14-19.33-17.6-27.11-12.3-17.62-26.7-33.83-40.13-50.53-9.75-12.15-19.74-24.5-27.71-37.89-6.87-12.05-11.61-25.46-13.34-39.36-.84-8.33-1.11-16.81-.45-25.17.93-12,4.33-23.63,10.02-34.38.84-1.46,2.34-3.88,3.2-5.39,1.34-1.99,2.74-3.96,4.11-5.94l4.56-5.69c5.69-6.59,12.78-12.3,21.14-14.61,20.46-5.54,44.51,5.02,65.86,8.86,19.38,4.14,38.13,14.42,55.12,25.16,35.44,22.87,66.55,52.4,93.24,84.98,20.21,24.49,36.57,51.99,49.93,80.75,6.53,14.33,12.62,29.11,14.5,44.8,2.11,14.64-1.63,29.8-9.1,42.19Z"/>
    <path class="cls-1" d="M2288.76,774.01c-6.93-13.62-15.95-25-24.81-36.82-8.67-11.4-16.93-22.92-25.56-34.42-17.09-23.08-28.75-33.98-55.1-46.33-18.07-8.75-39.75-15.02-50.36-33.39-8.26-13.53-26.08-6.96-38.92-8.06-2.94-.28-6.87-.45-8.84-2.44-.46-.96.58-2.53,1.19-3.39.31.22.92.06.05-4.81-.46-.26-1.23-.71-2.39-.83-1.45-.13-2.76.32-3.76,1.04-.16.11-.14.07-.21.11l-.32.15c-2.74,1.24-5.43,2.63-8.04,4.12-6.59,3.77-12.68,7.86-18.44,13.01-2.75,2.48-5.63,5.43-7.58,8.86-1.55,2.76-2.38,6.06-1.72,9.24,1.16,5.21,2.94,10.62,3.34,15.9l-.1.5c-.31,1.49-.39,4.41.23,6.12,1.07,3.68,3.5,7.11,5.37,10.2,12.87,20.45,27.41,42.43,39.29,63.38,3.45,6.11,6.74,12.22,9.97,18.54,2.11,3.98,4.43,8.84,6.91,12.61,2.16,3.48,4.91,6.69,8.05,9.33,2,1.66,4.39,3.36,6.57,4.71,15.66,9.64,33.34,16.89,48.16,27.83,8.35,5.97,15.98,12.9,23.55,20.04,2.88,2.75,5.84,5.48,8.92,7.89,5.53,4.3,11.5,7.52,18.28,7.8,3.23.13,6.65-.4,10.29-1.81,6.78-2.69,11.14-6.16,16.18-10.44l3.92-3.4c7.75-6.64,16.85-11.43,25.86-16.93,16.4-9.92,17.9-22.3,10.02-38.31ZM2063.11,639.42c-.02.06-.12.27-.14.22-.05-.02-.01-.07,0-.11.09-.19.18-.37.28-.55-.04.15-.08.29-.14.44ZM2275.94,791.41c-.13.47-.33.81-.69,1.36-.9,1.12-3.06,2.84-5.84,4.46-9.42,5.39-19.43,10.62-28.19,17.79-4.99,3.9-13.68,12.56-19.41,10.75-1.44-.41-3.66-1.85-5.98-3.76-5.07-4.24-10.16-9.55-15.27-14.21-10.88-10.19-23.19-19.42-36.25-26.75-7.18-4.03-16.26-8.93-23.45-12.96-3.32-1.92-6.97-3.92-9.96-6.29-3.95-2.89-6.07-7.43-8.33-11.68-4.06-7.99-8.25-16.12-12.67-23.98-12.68-22.82-28.41-46-41.9-68.42-.05.72-.14,1.43-.29,2.12.07-.87-.05-2.56-.39-3.23.01.01.02.01.02.02.22.36.43.72.66,1.09.24-2.89-.14-5.9-.74-8.66-.82-3.85-1.99-7.66-3.31-11.35-.24.41-.47.83-.69,1.25.24-.91.19-1.84.03-2.83-.33-1.29-.11-.47-.05-.37.24.65.48,1.3.71,1.95,2.37-4.03,5.73-7.62,8.73-11.44,2.33-2.83,4.72-5.7,7.05-8.61-2.73-3.29-2.91-7.85.9-12.58l.15-.17c.1-1.3.88.22.29-.35l-.15.18-.14.17c-.06.61.04,1.84.49,4.19.28,1.63,2.51,2.43,3.79,1.67.07-.04-.04.07-.05.1l-.2.27-.41.55c-1.51,2.01-3.08,4-4.67,5.97,1.69,2.04,4.36,3.59,7.67,4.36,7.34,1.91,15.01,1.56,22.43,1.45,3.15.02,6.57.12,9.5.82,2.89.82,3.59,1.62,5.27,4.25,2.75,4.79,6.28,9.94,10.43,13.77,8.25,7.88,18.4,13.49,28.44,18.32,7.27,3.51,16.44,7.99,23.34,12.06,2.85,1.72,5.89,3.54,8.6,5.49,18.73,12.63,30.21,32.75,43.19,50.89,4.09,5.88,8.19,11.78,12.37,17.63,7.92,11.26,16.55,22.61,22.38,34.66,1.61,3.69,2.97,6.86,2.59,10.05Z"/>
    <path class="cls-1" d="M2435.42,534.24c-24.24-37.29-69.18-113.51-115.96-120.1-4.1-.43-8.49-.49-12.57.25-1.83.19-4.35.98-6.13,1.45-1.9.62-3.92,1.48-5.73,2.29-1.59.81-5.97,3.13-7.6,3.95l-4.85,3.04c-15.16,9.7-27.61,23.92-34.96,40.35-1.77,4.11-3.39,8.38-4.37,12.76-5.33,5.86-8.65,13.25-10.25,21.01-2.89,14.14,1.26,29.05,9.23,40.86,13.66,20.97,36.92,31.95,58.02,43.58,12.65,6.94,25.34,13.98,36.95,22.42,11.54,8.38,20.86,19.11,29.07,30.67,13.72,18.34,28.08,49.39,56.36,39.31,16.38-5.82,27.44-20.92,32.91-36.79,12.15-35.78-.72-74.45-20.12-105.05ZM2442.51,614.72c-.92,15.36-6.31,31.4-18.66,41.1-11.23,8.24-17.85,6.68-27.68-2.4-7.74-7.21-14.65-15.38-22.22-23.11-10.24-10.59-21.39-20.49-33.9-28.34-12.34-7.94-25.4-14.15-36.75-23.01-11.45-8.71-21.34-19.19-31.61-28.99-13.97-13.12-27.22-29.17-26.6-49.26.17-6.17,1.56-12.52,3.99-18.26l.11-.26.05-.12c.05-.08.36-.54.42-.74,6.24-19.79,20.86-36.55,38.72-46.82l4.44-2.52,4.66-2.14c1.25-.59,3.22-1.52,4.52-1.88,1.26-.5,3.06-.94,4.39-1.2,19.36-3.58,37.37,12.1,50.1,25.21,24.33,25.8,42.94,56.59,61.72,86.6,14.35,22.46,25.89,49.25,24.3,76.14Z"/>
    <path class="cls-1" d="M2401.99,570.35c.13-11.7,1.91-23.69,1.26-35.63-.85-18.19-11.03-31.21-25.12-41.71-6.19-4.64-13.15-8.88-19.24-13.62-6.12-4.72-11.78-9.74-17.35-15.14-5.23-4.8-10.43-10.98-18.08-12.07-8.35-1.15-15.8,4.55-21.86,9.17-10.61,8.16-19.91,19.69-24.86,32.67-1.64,4.18-2.89,8.51-3.53,12.99-.11.55-.14,1.32-.21,1.93,0,1.07.23,3.51.76,4.75,2.12,3,4.28,5.86,6.61,8.61,2.17,2.47,4.42,5.17,6.27,7.87.69,1.04,1.25,2.04,1.84,3.21.76,1.55,1.66,3.34,2.77,4.71,1.12,1.48,2.49,2.75,3.89,3.94,4.6,3.51,10.82,7.04,15.74,10.11,10.11,6.19,20.05,12.33,29.84,18.9,9.94,6.54,19.54,13.44,29.66,19.79,9.89,6.17,25.81,14.98,30.44-1.96,1.59-6.19,1.09-12.31,1.17-18.52ZM2394.72,570.15c-.28,5.51.03,11.34-1.47,16.61-.42,1.53-1.16,2.77-1.73,3.19-.28.22-.48.3-.81.37-1.85.18-3.67-.61-5.71-1.56-6.47-3.29-12.62-8.34-18.46-12.94-8.5-6.94-18.71-15.66-27.08-22.77l-9.03-7.66c-5.89-5.13-14.01-11.88-19.46-17.34-.35-.38-.99-1.11-1.33-1.48-.19-.2-.3-.49-.46-.71-.02-.03-.07-.09-.07-.11h.07s.07-.01.1,0c.02.04.19.03.23.09.05.1.01-.09-.01-.22-.07-.5-.32-1.31-.47-1.86-1.43-4.93-3.69-9.9-5.96-14.5-.16-.36-.85-1.71-.98-2.03-.34-.9-.77-1.79-1.25-2.57,0,.12,0,.23.01.35.32,1.16.58,2.85.51,3.47-.01-.02-.06-.1-.07-.12-.3-1.06-.42-2.2-.44-3.35-.08-.28-.16-.53-.24-.73.08.12.16.25.23.38-.01-.94.04-1.89.08-2.81.31-3.44,1.03-6.83,2.25-10.23,3.32-8.95,10.27-18.52,18.38-24.1.19-.07.27-.19.4-.22.26-.14,1.06.04,1.47.23,1.76.75,3.27,1.78,5.13,3.1,4.71,3.46,9.45,7.14,14.29,10.59,6.55,4.67,13.38,9,20.35,12.99,12.61,6.99,26.2,16.16,30.9,30.33,4.59,14.4.87,30.45.63,45.61Z"/>
    <path class="cls-1" d="M974.37,1007.35c-2.02,2.13-4.04,4.25-6.07,6.38-1.1-1.12-2.2-2.24-3.3-3.35,2.25-1.95,4.51-3.88,6.77-5.81,1.9-1.4,4.25.87,2.6,2.78Z"/>
    <path class="cls-1" d="M1126.14,1242.34c-.68.68-1.58,1.02-2.47,1.02s-1.79-.34-2.48-1.02l-7.7-7.7c3.01-.28,6.02-.56,9.03-.87l3.62,3.62c1.37,1.37,1.37,3.58,0,4.95Z"/>
    <path class="cls-1" d="M581.97,766.07s0,.08,0,.2c-.08.07-.16.14-.25.21.1-.12.2-.27.23-.35.01-.03.02-.05.03-.06Z"/>
    <path class="cls-1" d="M736.06,816.51c-.75-.31-1.39-.88-1.78-1.66-.08-.17-.15-.34-.2-.51.67.72,1.33,1.45,1.98,2.17Z"/>
    <path class="cls-1" d="M2567.18,501.61c2.07.87,4.13,1.59,6.15,2.17-2.03-.61-4.08-1.34-6.15-2.17ZM2636.13,441.44c-1.76-5.56-4.49-10.89-7.44-15.88-7.33-12.33-15.4-23.83-23.01-35.83-2.93-4.72-5.67-9.51-8.23-14.45-2.42-4.54-4.63-9.59-7.82-13.87-4.95-6.57-13.64-8.4-21.1-9.86l-8.67-1.69c-4.65-.99-9.18-1.51-13.39-3.18-2.71-1.15-5.2-2.47-8.16-3.89-7.42-3.63-15.13-6.84-22.84-9.9-10.02-3.61-22.02-8.79-33.45-6.1-7.97,2.07-14.01,7.96-18.18,14.56-7.46,11.77-5.83,26.41-2.1,38.8,5.39,16.79,13.42,31.86,22.78,46.52,17.18,25.97,50.91,61.66,81.64,74.51-33.28-14.34-71.77-61.77-85.4-91.89-7.68-16.55-19.49-43.65-9.16-60.67,2.34-3.53,6.17-7.36,10.07-8.64,4.06-1.21,7.51.29,11.41,2.22,4.2,2.18,8.65,5.13,13.33,7.95.16.09.31.19.47.28,10.36,6.07,20.65,11.63,32.62,14.22.74.17,1.49.3,2.25.42,5.47.79,11.22.19,16.5.22,5.6.08,11.76.62,17.08,1.75,1.35.38,2.62.8,3.78,1.61.3.29.61.56.95.85l1.02,1.19c2.39,3.17,4.47,6.73,6.75,10.21,4.69,7.28,9.87,14.3,15.24,21.08,6.99,8.81,14.18,17.6,20.62,26.77,4.96,6.75,8.41,14.15,10.87,22.16,4.68,13.02,4.1,27.83-2.8,39.99-4.75,8.32-11.59,16.73-21.25,19.19-12.68,3.01-25.04-3.45-37.18-6.31,24.13,6.79,39.46,15.51,57.4-8.5,12.53-16.95,11.8-34.64,5.4-53.84Z"/>
    <path class="cls-1" d="M2605.48,463.22c-.43-2.49-1.03-5.09-1.16-7.61-.15-1.42.21-1.94.36-3.08.07-.91-.22-1.88-.56-2.69-8.26-17.36-17.82-34.05-24.79-51.96-1.55-3.86-3.68-7.79-6.91-10.52-5.73-4.87-12.48-8.46-18.55-12.62-4.36-2.92-8.36-6.11-12.12-9.67-1.29-1.23-2.56-2.51-3.8-3.83-2.8-2.9-5.09-5.68-8.26-8.62-5.17-4.97-12.14-7.38-19.09-4.99-1.74.62-3.09,1.51-4.19,2.52-.9.83-1.63,1.75-2.25,2.68l-1.9,2.97c-.7.98-1.1,1.59-1.74,2.21-2.57,2.24-5.44,4.14-8.59,6.02-10.44,5.69-16.66,10.79-10.56,23.25,5.52,10.55,13.07,19.09,19.79,28.7,4.1,5.46,9.3,13.29,13.86,18.35,5.01,5.97,11.63,10.56,18.48,14.12,10.5,5.7,23.63,9.33,29.63,20.57,1.43,2.79,4.61,3.8,7.49,3.88,4.73.28,9.53-.56,14.17.68,3.47.82,4.81,3.24,2.22,6.1,1.34-1.28,2.14-3.72.39-5.01-4.94-3.1-11.23-1.68-16.74-2.3-4.98-.34-6.03-2.18-8.23-6.27-4.07-6.67-11.06-10.8-17.74-14.44-2.89-1.59-7.14-3.77-9.88-5.51-3.24-1.91-6.3-4.06-9.12-6.41-8.62-7.31-13.77-17.37-19.82-26.91-3.89-6.44-8.15-12.9-11.96-19.31-2.48-4.42-5.33-9.12-5.92-13.88-.03-.99.05-1.29.61-1.92.54-.53,1.73-1.33,3.25-2.09,5.23-2.51,10.7-4.99,15.67-8.5,1.88-1.26,3.59-1.67,5.36-1.78,1.74-.1,3.14-.04,3.57-.15.2-.08.22-.09.17-.12,1.48.7,3.66,2.89,5.23,4.31,4.31,4.09,8.83,8.22,13.75,11.78,8.69,6.65,19.19,10.53,28.22,16.38,1.33.88,2.22,2.09,3.04,3.44,4.6,8.3,9.21,16.81,14.4,24.74,5.52,8.6,12.34,18.24,17.92,26.79l.03.04s0-.02.01-.03c.03.07.01.05-.01.03-.26,1.92.14,3.5.52,5.2.53,1.94,1.33,4.45,1.94,6.09.01-.02.01-.05.02-.07,0,.02,0,.06,0,.09t-.01-.02c-.25,1.12-1.68,2.91-2.56,3.91-3.69,4.27-7.9,8.11-12.1,11.92,3.99-2.62,19.24-11.49,18.47-16.46ZM2516.17,364.91c.12.03.24.08.38.14-.15,0-.37-.11-.38-.14ZM2599.22,452.5c-.02-.09-.01-.18.02-.27v-.03h.02c-.02.1-.03.2-.04.3Z"/>
  </g>
</svg>