<svg width="118" height="24" viewBox="0 0 118 24" fill="none" xmlns="http://www.w3.org/2000/svg">
<path d="M87.95 8.40026V23.3597H83.1309V6.05762L87.95 8.40026Z" fill="#FF6565"/>
<path d="M19.7441 20.5822L23.3585 23.728L38.5857 15.7965L37.0128 12.0148L19.7441 20.5822ZM83.1294 10.9439L95.3781 4.58529L93.3032 1.00439L83.1294 6.05781V10.9439Z" fill="#FF6565"/>
<path d="M48.6591 7.22925V23.36H44.0407V0.368652L48.6591 7.22925ZM19.7441 20.5823L23.3585 23.7282L30.3195 6.32566L28.0773 0.368652L19.7441 20.5823Z" fill="#FF6565"/>
<path d="M28.0781 0.368652H32.8303L41.632 23.36H36.7459L28.0781 0.368652ZM49.3627 0.368652L59.503 16.0644V23.36L44.0416 0.368652H49.3627ZM68.2043 0.368652H72.99V23.36H68.2043V0.368652ZM83.1302 4.58541H75.7677V0.368652H92.9359L95.3789 4.58541H87.9494H83.1302Z" fill="#FF6565"/>
<path d="M109.535 14.625V23.3597H104.783V14.625" fill="#FF6565"/>
<path d="M112.815 0.368652L104.783 14.6253H109.535L117.869 0.368652H112.815Z" fill="#FF6565"/>
<path d="M104.782 14.6253L96.4824 0.368652H101.703L107.292 10.1408L104.782 14.6253Z" fill="#FF6565"/>
<path d="M1.90701 3.0459C1.90701 6.2252 3.88153 8.13278 7.83056 9.13677L12.0138 10.1073C15.7621 10.9774 18.0378 13.1193 18.0378 16.5998C18.0713 18.1058 17.5693 19.5783 16.6657 20.7831C16.6657 17.3026 14.8585 15.4284 10.5413 14.2906L6.42497 13.3535C3.1118 12.6173 0.568359 10.8436 0.568359 7.06186C0.568359 5.62281 1.03689 4.18375 1.90701 3.0459Z" fill="#FF6565"/>
<path d="M59.5039 14.893V0.368652H64.1223V23.36H59.5039V14.893Z" fill="#FF6565"/>
<path d="M14.0893 15.7292C15.863 16.867 16.6662 18.4734 16.6662 20.7826C15.1603 22.6902 12.5833 23.7276 9.53791 23.7276C4.41756 23.7276 0.769726 21.1842 0 16.8001H4.91955C5.55541 18.8081 7.22873 19.7451 9.50444 19.7451C12.2152 19.7786 14.0559 18.3061 14.0893 15.7292ZM1.90758 3.01197C3.34663 1.13786 5.82314 0 8.83511 0C14.0893 0 17.1013 2.77771 17.871 6.6598H13.1188C12.5833 5.12035 11.2782 3.91556 8.90205 3.91556C6.32514 3.94903 4.58489 5.42155 4.48449 7.76419C2.75998 6.81314 1.84065 4.95302 1.90758 3.01197Z" fill="#FF6565"/>
</svg>
