<svg width="137" height="39" viewBox="0 0 137 39" fill="none" xmlns="http://www.w3.org/2000/svg">
<g clip-path="url(#clip0_188_1036)">
<path d="M29.29 7.3935C29.2627 7.20252 29.0991 7.09339 28.9627 7.09339C28.8264 7.09339 26.1264 7.03882 26.1264 7.03882C26.1264 7.03882 23.8629 4.8562 23.6447 4.61066C23.4265 4.39239 22.9902 4.44696 22.8265 4.50152C22.8265 4.50152 22.3902 4.63794 21.6811 4.8562C21.572 4.47424 21.3811 4.01043 21.1357 3.51934C20.3448 1.99151 19.1448 1.17303 17.7267 1.17303C17.6176 1.17303 17.5358 1.17303 17.4267 1.20031C17.3722 1.14574 17.3449 1.09118 17.2904 1.06389C16.6631 0.409108 15.8722 0.0817147 14.9177 0.108997C13.0905 0.163563 11.2633 1.50042 9.76333 3.84674C8.727 5.51099 7.93611 7.58448 7.69067 9.19416C5.59073 9.84895 4.11805 10.3128 4.06351 10.3128C2.9999 10.6401 2.97263 10.6674 2.83627 11.6769C2.78173 12.4408 0 33.9669 0 33.9669L23.3447 38.0048L33.4626 35.4948C33.4353 35.4948 29.3173 7.58448 29.29 7.3935ZM20.5084 5.23816C19.963 5.40186 19.363 5.59284 18.7085 5.8111C18.7085 4.88348 18.5721 3.57391 18.1631 2.4826C19.5539 2.70086 20.2357 4.28326 20.5084 5.23816ZM17.4813 6.16577C16.254 6.54773 14.9177 6.95697 13.5814 7.36622C13.9632 5.92023 14.6723 4.50152 15.545 3.54663C15.8722 3.19195 16.3358 2.80999 16.854 2.59173C17.3994 3.65576 17.5085 5.15631 17.4813 6.16577ZM14.9723 1.33672C15.4086 1.33672 15.7631 1.41857 16.0631 1.63683C15.5722 1.88238 15.0813 2.26434 14.645 2.75543C13.4723 4.01043 12.5723 5.94751 12.2178 7.83002C11.0996 8.1847 10.0088 8.51209 9.02699 8.8122C9.68151 5.83838 12.1633 1.41857 14.9723 1.33672Z" fill="#FF6565"/>
<path d="M28.9637 7.09327C28.8273 7.09327 26.1274 7.0387 26.1274 7.0387C26.1274 7.0387 23.8639 4.85608 23.6457 4.61053C23.5639 4.52869 23.4548 4.47412 23.3457 4.47412V38.0047L33.4636 35.4946C33.4636 35.4946 29.3455 7.58436 29.3182 7.39338C29.2637 7.2024 29.1001 7.09327 28.9637 7.09327Z" fill="#FF6565"/>
<path d="M17.7275 12.3042L16.5548 16.6968C16.5548 16.6968 15.2457 16.0965 13.6912 16.2057C11.4004 16.3421 11.4004 17.7881 11.4004 18.1428C11.5368 20.1071 16.6911 20.5436 16.9911 25.1544C17.2093 28.783 15.0821 31.2658 11.9731 31.4568C8.26414 31.6477 6.21875 29.4651 6.21875 29.4651L7.00963 26.1093C7.00963 26.1093 9.0823 27.6644 10.7186 27.5553C11.7822 27.5007 12.1913 26.6004 12.1367 26.0002C11.9731 23.4356 7.77325 23.5993 7.50053 19.3705C7.28235 15.8237 9.60046 12.2497 14.7276 11.9223C16.7184 11.7859 17.7275 12.3042 17.7275 12.3042Z" fill="#FFFDEF"/>
<path d="M47.1537 21.6624C45.981 21.0349 45.381 20.4893 45.381 19.7526C45.381 18.825 46.2265 18.2248 47.5355 18.2248C49.0627 18.2248 50.4263 18.8523 50.4263 18.8523L51.4899 15.5784C51.4899 15.5784 50.5082 14.8145 47.6173 14.8145C43.5811 14.8145 40.7721 17.1335 40.7721 20.3801C40.7721 22.2354 42.0811 23.6268 43.8265 24.6363C45.2447 25.4275 45.7356 26.0004 45.7356 26.8462C45.7356 27.7192 45.0265 28.4286 43.7175 28.4286C41.7812 28.4286 39.9267 27.4191 39.9267 27.4191L38.7812 30.693C38.7812 30.693 40.4721 31.8389 43.3357 31.8389C47.481 31.8389 50.4809 29.7927 50.4809 26.1095C50.4536 24.1179 48.9537 22.6992 47.1537 21.6624Z" fill="#FF6565"/>
<path d="M63.6805 14.7601C61.6352 14.7601 60.0261 15.7423 58.7989 17.2155L58.7443 17.1883L60.517 7.91211H55.9081L51.4082 31.539H56.0171L57.5444 23.4633C58.1444 20.4076 59.7261 18.5251 61.1988 18.5251C62.2351 18.5251 62.6442 19.2345 62.6442 20.2439C62.6442 20.8714 62.5897 21.6626 62.4533 22.2901L60.7079 31.539H65.3169L67.1168 21.99C67.3077 20.9806 67.4441 19.7801 67.4441 18.9616C67.4713 16.3425 66.1077 14.7601 63.6805 14.7601Z" fill="#FF6565"/>
<path d="M77.917 14.7598C72.3536 14.7598 68.6719 19.7798 68.6719 25.3728C68.6719 28.9468 70.8809 31.8388 75.0262 31.8388C80.4806 31.8388 84.1623 26.9552 84.1623 21.2258C84.1896 17.9246 82.2533 14.7598 77.917 14.7598ZM75.6535 28.3193C74.0717 28.3193 73.4172 26.9824 73.4172 25.2909C73.4172 22.6445 74.7808 18.3338 77.2898 18.3338C78.9261 18.3338 79.4715 19.7525 79.4715 21.1167C79.4715 23.9541 78.0807 28.3193 75.6535 28.3193Z" fill="#FF6565"/>
<path d="M95.9972 14.7598C92.8883 14.7598 91.1156 17.5153 91.1156 17.5153H91.061L91.3338 15.0326H87.243C87.0521 16.6968 86.6703 19.2614 86.3157 21.1712L83.0977 38.0865H87.7066L88.9884 31.2386H89.0975C89.0975 31.2386 90.052 31.8388 91.7974 31.8388C97.2245 31.8388 100.77 26.2731 100.77 20.6528C100.77 17.5426 99.379 14.7598 95.9972 14.7598ZM91.5792 28.3739C90.3792 28.3739 89.6702 27.6918 89.6702 27.6918L90.4338 23.3811C90.9792 20.4891 92.4792 18.5794 94.0882 18.5794C95.5064 18.5794 95.9427 19.8889 95.9427 21.1167C95.9427 24.1178 94.17 28.3739 91.5792 28.3739Z" fill="#FF6565"/>
<path d="M107.37 8.13037C105.897 8.13037 104.725 9.30353 104.725 10.8041C104.725 12.1682 105.597 13.1231 106.906 13.1231H106.961C108.406 13.1231 109.634 12.1409 109.661 10.4494C109.661 9.11255 108.761 8.13037 107.37 8.13037Z" fill="#FF6565"/>
<path d="M100.906 31.5113H105.515L108.651 15.1416H104.015L100.906 31.5113Z" fill="#FF6565"/>
<path d="M120.407 15.1145H117.189L117.352 14.3506C117.625 12.7682 118.552 11.3768 120.107 11.3768C120.925 11.3768 121.579 11.6223 121.579 11.6223L122.479 7.99371C122.479 7.99371 121.689 7.58447 119.97 7.58447C118.334 7.58447 116.698 8.04828 115.443 9.11231C113.862 10.4492 113.125 12.3862 112.771 14.3506L112.634 15.1145H110.48L109.798 18.6067H111.953L109.498 31.5388H114.107L116.561 18.6067H119.752L120.407 15.1145Z" fill="#FF6565"/>
<path d="M131.533 15.1416C131.533 15.1416 128.642 22.4261 127.36 26.4094H127.306C127.224 25.1271 126.16 15.1416 126.16 15.1416H121.306L124.088 30.1744C124.142 30.5018 124.115 30.7201 123.979 30.9383C123.433 31.9751 122.533 32.9845 121.47 33.7212C120.597 34.3487 119.615 34.7579 118.852 35.0307L120.133 38.9595C121.061 38.7685 123.024 37.9773 124.66 36.4495C126.76 34.4851 128.724 31.4294 130.715 27.2824L136.36 15.1416H131.533Z" fill="#FF6565"/>
</g>
<defs>
<clipPath id="clip0_188_1036">
<rect width="136.359" height="38.9598" fill="white"/>
</clipPath>
</defs>
</svg>
