<svg width="171" height="39" viewBox="0 0 171 39" fill="none" xmlns="http://www.w3.org/2000/svg">
<path d="M99.1063 15.2344H92.3661V15.9503C94.4741 15.9503 94.8133 16.4027 94.8133 19.0795V23.906C94.8133 26.5828 94.4747 27.0733 92.3661 27.0733C90.7475 26.8469 89.6551 25.9798 88.149 24.3206L86.4168 22.4357C88.7512 22.0204 89.9935 20.5504 89.9935 18.8912C89.9935 16.818 88.2242 15.2344 84.9104 15.2344H78.2838V15.9503C80.3917 15.9503 80.731 16.4027 80.731 19.0795V23.906C80.731 26.5828 80.392 27.0733 78.2838 27.0733V27.7895H85.7766V27.0733C83.6684 27.0733 83.3295 26.5828 83.3295 23.906V22.5494H83.9693L88.1493 27.7895H99.1066C104.491 27.7895 106.825 24.9245 106.825 21.4931C106.825 18.062 104.491 15.2344 99.1063 15.2344ZM83.3298 21.3794V16.3656H84.8733C86.5674 16.3656 87.3208 17.5343 87.3208 18.8916C87.3208 20.2114 86.5674 21.3797 84.8733 21.3797L83.3298 21.3794ZM99.2194 26.6205H98.9556C97.6008 26.6205 97.4124 26.2818 97.4124 24.5473V16.3656H99.2194C103.136 16.3656 103.85 19.2306 103.85 21.4553C103.85 23.7549 103.135 26.6205 99.2194 26.6205ZM57.3117 22.7751L59.9098 15.0829C60.6632 12.8586 60.3242 12.2182 57.9145 12.2182V11.4639H64.9932V12.2182C62.6211 12.2182 62.0564 12.7834 61.115 15.5357L56.8221 28.4302H56.3329L52.4921 16.6291L48.5762 28.4302H48.0866L43.9073 15.536C43.0033 12.7837 42.4011 12.2185 40.2168 12.2185V11.4642H48.5759V12.2185C46.3541 12.2185 45.7514 12.7462 46.5425 15.0833L49.0651 22.7754L52.8682 11.4642H53.5838L57.3117 22.7751ZM70.1134 28.2791C65.9717 28.2791 62.5828 25.2255 62.5828 21.4924C62.5828 17.7975 65.972 14.7435 70.1134 14.7435C74.2553 14.7435 77.6439 17.7975 77.6439 21.4924C77.6439 25.2255 74.2553 28.2791 70.1134 28.2791ZM70.1134 15.9132C66.6496 15.9132 65.4444 19.0417 65.4444 21.4928C65.4444 23.9816 66.6496 27.073 70.1134 27.073C73.6155 27.073 74.8207 23.9816 74.8207 21.4928C74.8204 19.0417 73.6155 15.9132 70.1134 15.9132Z" fill="#FF6565"/>
<path d="M116.07 27.1752V27.936H107.455V27.1752C109.976 27.1752 110.428 26.5284 110.428 22.7237V16.638C110.428 12.8333 109.976 12.2253 107.455 12.2253V11.4639H115.243C119.117 11.4639 121.263 13.4801 121.263 16.1815C121.263 18.8063 119.117 20.8603 115.243 20.8603H113.098V22.7237C113.098 26.5287 113.55 27.1752 116.07 27.1752ZM115.243 12.8333H113.098V19.4528H115.243C117.35 19.4528 118.328 17.9693 118.328 16.1815C118.328 14.3556 117.35 12.8333 115.243 12.8333ZM147.108 24.3603L146.92 25.0449C146.582 26.3003 146.167 26.7568 143.496 26.7568H142.969C141.013 26.7568 140.674 26.3003 140.674 23.5999V21.8502C143.609 21.8502 143.835 22.1161 143.835 24.0945H144.55V18.4258H143.835C143.835 20.4039 143.609 20.6701 140.674 20.6701V16.4099H142.743C145.415 16.4099 145.828 16.8664 146.167 18.1218L146.356 18.8444H146.957L146.694 15.2688H135.633V15.9912C137.74 15.9912 138.079 16.4477 138.079 19.1484V24.0179C138.079 26.4887 137.791 27.1111 136.13 27.2001C134.551 26.956 133.468 26.0857 131.985 24.4363L130.254 22.5344C132.586 22.1154 133.828 20.6323 133.828 18.9582C133.828 16.8664 132.06 15.2685 128.749 15.2685H122.128V15.9909C124.235 15.9909 124.573 16.4474 124.573 19.1481V24.0179C124.573 26.7187 124.235 27.2136 122.128 27.2136V27.9363H129.615V27.2136C127.509 27.2136 127.17 26.7187 127.17 24.0179V22.6491H127.809L131.985 27.9363H147.448L147.673 24.361L147.108 24.3603ZM127.169 21.4687V16.4099H128.711C130.404 16.4099 131.157 17.589 131.157 18.9585C131.157 20.2901 130.404 21.469 128.711 21.469L127.169 21.4687ZM154.745 28.4302C153.24 28.4302 151.923 27.6316 151.359 27.1367C151.17 27.3273 150.832 27.8978 150.757 28.4302H150.042V23.1809H150.795C151.096 25.6917 152.826 27.1752 155.046 27.1752C156.25 27.1752 157.228 26.4903 157.228 25.3495C157.228 24.3607 156.363 23.5995 154.82 22.8769L152.676 21.8499C151.17 21.1265 150.042 19.8708 150.042 18.1977C150.042 16.3718 151.735 14.8124 154.068 14.8124C155.309 14.8124 156.363 15.2692 157.003 15.8016C157.19 15.6491 157.379 15.2307 157.492 14.7739H158.206V19.2631H157.416C157.153 17.475 156.175 15.9915 154.181 15.9915C153.128 15.9915 152.149 16.5998 152.149 17.5516C152.149 18.5404 152.939 19.0728 154.745 19.9096L156.814 20.9366C158.62 21.8114 159.335 23.2196 159.335 24.3607C159.335 26.7568 157.265 28.4302 154.745 28.4302ZM166.332 28.4302C164.827 28.4302 163.51 27.6316 162.946 27.1367C162.758 27.3273 162.42 27.8978 162.345 28.4302H161.63V23.1809H162.382C162.683 25.6917 164.413 27.1752 166.634 27.1752C167.837 27.1752 168.816 26.4903 168.816 25.3495C168.816 24.3607 167.951 23.5995 166.408 22.8769L164.263 21.8499C162.758 21.1265 161.63 19.8708 161.63 18.1977C161.63 16.3718 163.323 14.8124 165.655 14.8124C166.897 14.8124 167.95 15.2692 168.59 15.8016C168.778 15.6491 168.966 15.2307 169.078 14.7739H169.793V19.2631H169.004C168.74 17.475 167.762 15.9915 165.768 15.9915C164.715 15.9915 163.736 16.5998 163.736 17.5516C163.736 18.5404 164.526 19.0728 166.333 19.9096L168.401 20.9366C170.207 21.8114 170.922 23.2196 170.922 24.3607C170.922 26.7568 168.852 28.4302 166.332 28.4302Z" fill="#FF6565"/>
<path d="M2.75586 19.39C2.75586 25.9746 6.58226 31.6643 12.1308 34.3611L4.19634 12.6203C3.24504 14.7504 2.75417 17.0572 2.75586 19.39ZM30.6196 18.5506C30.6196 16.4948 29.8812 15.0711 29.2479 13.963C28.4046 12.5928 27.6143 11.4324 27.6143 10.0622C27.6143 8.53313 28.774 7.10975 30.4076 7.10975C30.4813 7.10975 30.5513 7.11893 30.6231 7.12304C27.6637 4.41206 23.7208 2.75635 19.3905 2.75635C13.5792 2.75635 8.46618 5.73795 5.49217 10.254C5.88212 10.2658 6.25023 10.2737 6.56263 10.2737C8.30254 10.2737 10.9958 10.0625 10.9958 10.0625C11.8925 10.0097 11.9982 11.3267 11.1025 11.4328C11.1025 11.4328 10.2013 11.5388 9.1986 11.5913L15.2558 29.6095L18.8961 18.6918L16.3044 11.591C15.4087 11.5385 14.5598 11.4324 14.5598 11.4324C13.6634 11.3799 13.7685 10.0094 14.6649 10.0622C14.6649 10.0622 17.4123 10.2734 19.0468 10.2734C20.786 10.2734 23.4799 10.0622 23.4799 10.0622C24.3773 10.0094 24.4827 11.3264 23.5866 11.4324C23.5866 11.4324 22.6833 11.5385 21.6824 11.591L27.6937 29.4724L29.3529 23.928C30.0724 21.6272 30.6196 19.9747 30.6196 18.5506Z" fill="#FF6565"/>
<path d="M19.6826 20.8454L14.6914 35.3477C16.2174 35.7973 17.7999 36.0257 19.3908 36.0256C21.272 36.0261 23.1398 35.7073 24.9143 35.0827C24.8682 35.01 24.8286 34.9333 24.7959 34.8536L19.6826 20.8454ZM33.9867 11.4097C34.0586 11.9395 34.0988 12.5086 34.0988 13.1201C34.0988 14.8081 33.7835 16.7057 32.8339 19.0783L27.7529 33.7689C32.6982 30.8851 36.0245 25.5274 36.0245 19.3904C36.0289 16.6009 35.3279 13.8556 33.9867 11.4097Z" fill="#FF6565"/>
<path d="M19.3906 0C8.69889 0 0 8.69825 0 19.3899C0 30.0829 8.69889 38.7811 19.3909 38.7811C30.0819 38.7811 38.7824 30.0832 38.7824 19.3899C38.7818 8.69825 30.0819 0 19.3906 0ZM19.3906 37.892C9.18917 37.892 0.889101 29.592 0.889101 19.3899C0.889101 9.18886 9.18886 0.889418 19.3906 0.889418C29.5917 0.889418 37.8908 9.18886 37.8908 19.3899C37.8911 29.592 29.5917 37.892 19.3906 37.892Z" fill="#FF6565"/>
</svg>
